<svg width="83" height="89" viewBox="0 0 83 83" fill="none" xmlns="http://www.w3.org/2000/svg">
<path d="M41.2503 82.9975C18.3385 82.7392 -0.226962 63.9539 0.00209702 41.2472C0.237029 18.3821 19.0668 -0.215321 41.7613 0.00188344C64.626 0.224958 83.2385 19.0748 82.9977 41.758C82.751 64.6642 63.933 83.2499 41.2503 82.9975ZM41.6027 76.0997C60.6439 76.0176 76.1905 60.3847 76.1024 41.4116C76.0143 22.3622 60.409 6.84676 41.4147 6.9172C22.3852 6.98765 6.86211 22.597 6.92084 41.5995C6.98545 60.6254 22.6202 76.1819 41.6027 76.0997Z" fill="white"/>
<path d="M36.4518 49.1312C41.4852 43.2901 46.7124 37.2319 51.9338 31.1795C53.3375 29.5476 54.7119 27.8921 56.1567 26.2954C57.6015 24.6927 59.387 24.2818 61.0903 25.6848C62.9286 27.1994 62.7818 29.1073 61.29 30.8449C53.9072 39.4509 46.5245 48.0628 39.0772 56.6159C37.2329 58.7293 35.3182 58.694 33.2978 56.6511C29.58 52.9 25.9092 49.1018 22.2619 45.2861C20.2474 43.1845 20.0712 41.1181 21.7862 39.6798C23.789 38.0009 25.4981 38.7641 27.1779 40.4019C30.1674 43.3136 33.2567 46.1255 36.4577 49.1253L36.4518 49.1312Z" fill="white"/>
</svg>
