<svg width="80" height="88" viewBox="0 0 107 115" fill="none" xmlns="http://www.w3.org/2000/svg">
<g clip-path="url(#clip0_1832_1573)">
<path d="M64.7091 77.2564C72.2074 80.1962 77.8359 85.013 81.5365 91.9785C83.7211 96.0895 84.9261 100.468 84.9766 105.141C85 107.402 85.0194 109.664 84.9922 111.925C84.965 114.104 84.102 114.965 81.9291 114.988C79.3403 115.016 76.7476 114.996 74.1587 114.996C58.5518 114.996 42.9488 114.996 27.3419 114.996C23.5558 114.996 23.066 114.465 23.0272 110.61C22.9805 106.084 22.8911 101.542 24.341 97.1831C27.2914 88.329 32.9705 81.8755 41.5494 78.0399C42.0781 77.8033 42.6067 77.5667 43.3997 77.2099C37.6118 72.5676 34.8519 66.7191 35.9131 59.393C36.5894 54.7119 38.9489 50.9267 42.6106 47.9714C50.0934 41.9368 61.1368 42.8986 67.7177 50.0851C73.5756 56.4765 75.321 68.5962 64.7129 77.2603L64.7091 77.2564ZM79.8262 109.83C80.6075 99.3395 77.179 90.8499 68.4446 84.8579C59.8385 78.9551 48.4763 78.8931 39.7691 84.761C30.9259 90.7219 27.4469 99.2658 28.2243 109.83H79.8301H79.8262ZM53.9844 49.0884C46.6921 49.1116 40.7292 55.0687 40.772 62.2785C40.8187 69.527 46.7776 75.4026 54.0777 75.391C61.3156 75.3794 67.3484 69.3602 67.3096 62.1854C67.2707 54.9717 61.2612 49.0612 53.9844 49.0845V49.0884Z" fill="white"/>
</g>
<g clip-path="url(#clip1_1832_1573)">
<path d="M45.2161 32.6321C44.1444 32.6321 43.1541 32.1923 42.4269 31.3937C41.7708 30.6726 41.4783 29.8174 41.4795 28.6203V28.5711L41.4928 28.5235C41.5263 28.4036 41.5651 28.2621 41.6078 28.1047C41.7211 27.6893 41.8622 27.172 42.0188 26.6541C42.6085 24.7059 43.2027 22.7742 43.7842 20.9121C43.7842 20.911 43.7848 20.9099 43.7854 20.9087C43.7802 20.9048 43.7738 20.8997 43.7669 20.8946C42.1599 19.7032 40.0442 18.132 37.925 16.5432C36.7319 15.6484 36.2122 14.4332 36.422 13.0285C36.6278 11.648 37.4365 10.6524 38.7603 10.1498C39.1655 9.99589 39.6465 9.90646 40.1517 9.89174C42.279 9.82948 44.5756 9.77968 47.3792 9.73553C47.4492 9.7344 47.4792 9.72704 47.489 9.72365C47.4954 9.71515 47.5122 9.68912 47.5353 9.6229C48.3504 7.308 49.1492 5.04574 49.9666 2.81235C50.51 1.32776 51.891 0.368408 53.4841 0.368408C54.1177 0.368408 54.7524 0.529715 55.3206 0.834783C56.1479 1.27908 56.734 1.96959 57.0618 2.88649C57.2491 3.4106 57.4369 3.93471 57.6242 4.45881C58.2225 6.13018 58.8416 7.85814 59.4388 9.56234C59.4995 9.73553 59.5029 9.73553 59.6665 9.73779C62.0695 9.76949 64.4777 9.82609 66.8068 9.88042C67.7427 9.9025 68.5843 10.1838 69.2421 10.6949C69.9087 11.2128 70.3555 11.9435 70.5347 12.8066C70.8411 14.2844 70.3601 15.5545 69.1433 16.4804C67.8097 17.4947 66.4426 18.5106 65.1206 19.4926C64.5616 19.9081 64.0032 20.3229 63.4453 20.7389C63.358 20.804 63.2679 20.8714 63.2234 20.9116C63.2349 20.9687 63.2667 21.0712 63.2973 21.1708L63.765 22.6922C64.2858 24.3867 64.8246 26.1385 65.3506 27.863C65.8235 29.4133 65.268 31.0184 63.9349 31.9523C63.3025 32.3955 62.558 32.6298 61.7822 32.6298C61.0007 32.6298 60.2382 32.3926 59.5775 31.9438C58.9908 31.5454 58.4035 31.1475 57.8161 30.749C56.4005 29.7891 54.9368 28.7969 53.5003 27.8155C53.4945 27.8189 53.4882 27.8234 53.4812 27.8279C51.1742 29.4014 49.2423 30.7128 47.4012 31.954C46.7439 32.3972 45.9884 32.6315 45.2167 32.6315L45.2161 32.6321ZM53.4992 24.6352C53.7287 24.6352 53.9136 24.7439 54.0333 24.8254C55.6646 25.9432 57.3294 27.0718 58.9387 28.1636C59.6602 28.6532 60.3822 29.1427 61.103 29.6329C61.3533 29.8032 61.5551 29.8791 61.758 29.8791C61.7996 29.8791 61.8418 29.8757 61.884 29.8695C62.1742 29.8248 62.4117 29.6804 62.5516 29.4631C62.7043 29.2265 62.7349 28.9209 62.6378 28.6022C61.8481 26.0128 60.9978 23.2304 60.1272 20.4282C60.0076 20.0422 60.1007 19.7615 60.4307 19.5175C61.7926 18.5095 63.1748 17.48 64.5113 16.4838C65.4512 15.7837 66.3911 15.083 67.3322 14.384C67.664 14.1378 67.812 13.8837 67.812 13.5611C67.8103 13.02 67.4022 12.647 66.7964 12.6334C63.5627 12.5615 60.8666 12.5027 58.0722 12.4511C57.6716 12.4438 57.426 12.2683 57.2982 11.8982C57.0306 11.1216 56.7473 10.3343 56.4733 9.57253C56.3687 9.28104 56.2635 8.99012 56.1594 8.69864C55.9733 8.17793 55.7871 7.65722 55.601 7.13594C55.2056 6.02887 54.8102 4.92179 54.4125 3.81528C54.2559 3.38004 53.9194 3.11968 53.5119 3.11968C53.4003 3.11968 53.2859 3.13949 53.1714 3.17911C52.8668 3.28438 52.6847 3.50512 52.5211 3.9664C52.0297 5.35194 51.5274 6.75899 51.0412 8.11963C50.5961 9.36594 50.136 10.6541 49.6857 11.9219C49.6071 12.1438 49.4458 12.4398 48.9567 12.4489C46.3104 12.4976 43.6195 12.5564 41.0176 12.6136L40.2326 12.6306C39.8713 12.6385 39.4048 12.7528 39.2337 13.2537C39.0863 13.6844 39.2262 14.0523 39.6621 14.3772L40.7667 15.2013C42.679 16.6281 44.6565 18.1037 46.6046 19.5504C46.7907 19.6885 47.0225 19.9239 46.8832 20.3693C46.4659 21.7017 46.0508 23.0595 45.6491 24.3726L45.3173 25.4564L45.0791 26.2324C44.8386 27.0163 44.5901 27.8262 44.349 28.6237C44.2617 28.9135 44.2866 29.1976 44.4201 29.4246C44.5461 29.6391 44.7554 29.7863 45.0248 29.8508C45.0964 29.8678 45.1675 29.8763 45.2358 29.8763C45.4369 29.8763 45.6369 29.8044 45.8641 29.6499C46.6179 29.1376 47.3717 28.6266 48.1261 28.1155C49.7117 27.0401 51.3517 25.9285 52.9593 24.8282C53.0911 24.7382 53.2714 24.6346 53.4992 24.6346V24.6352Z" fill="white"/>
<path d="M53.484 0.735775C54.039 0.735775 54.6066 0.870481 55.1396 1.15687C55.9084 1.57004 56.4183 2.20056 56.7068 3.00766C57.5016 5.23143 58.3022 7.45294 59.0837 9.68124C59.1895 9.98347 59.3156 10.1006 59.6618 10.1052C62.0405 10.1369 64.4193 10.1923 66.798 10.2478C68.531 10.2885 69.8369 11.2898 70.167 12.8796C70.445 14.2193 70.0155 15.3507 68.9131 16.1895C67.0269 17.6238 65.1176 19.0291 63.2181 20.4464C62.9267 20.6637 62.8338 20.942 62.9394 21.2812C63.6239 23.51 64.3106 25.7383 64.991 27.9683C65.4182 29.3692 64.9147 30.8141 63.7169 31.6535C63.1377 32.0593 62.4631 32.2619 61.7833 32.2619C61.1035 32.2619 60.4017 32.0548 59.7925 31.6416C57.7663 30.2663 55.7379 28.8954 53.7159 27.5144C53.6343 27.459 53.5673 27.4335 53.502 27.4335C53.4268 27.4335 53.3551 27.4674 53.2673 27.5269C51.2446 28.9068 49.2191 30.2827 47.1889 31.6518C46.5779 32.0638 45.8923 32.2642 45.2172 32.2642C44.2876 32.2642 43.3772 31.8833 42.7089 31.1486C42.1332 30.5164 41.8557 29.7705 41.8569 28.6204C41.9783 28.1874 42.1656 27.4686 42.3806 26.7583C42.9604 24.843 43.5483 22.9299 44.1449 21.0191C44.2084 20.8159 44.1541 20.7186 43.9951 20.6003C42.0453 19.1542 40.0967 17.7064 38.155 16.2501C37.089 15.4509 36.6 14.3891 36.7954 13.0806C36.9815 11.8337 37.696 10.9479 38.8978 10.4917C39.2926 10.3417 39.7389 10.271 40.1643 10.2585C42.5714 10.1884 44.979 10.1403 47.3866 10.1023C47.678 10.0978 47.7994 10.0055 47.8919 9.7418C48.6919 7.46935 49.4937 5.19803 50.322 2.93578C50.8284 1.5525 52.1192 0.735775 53.4858 0.735775M45.2357 30.2453C45.5386 30.2453 45.8137 30.1327 46.0785 29.9533C48.4439 28.3459 50.8151 26.7458 53.1748 25.1305C53.2979 25.0461 53.3985 25.0031 53.4991 25.0031C53.5997 25.0031 53.6962 25.0439 53.8176 25.1271C56.1692 26.7379 58.5311 28.3334 60.889 29.9352C61.1573 30.1174 61.4388 30.247 61.7579 30.247C61.818 30.247 61.8793 30.2425 61.9423 30.2329C62.7903 30.1027 63.2562 29.3454 62.9978 28.497C62.1666 25.77 61.3324 23.0437 60.4867 20.3213C60.4121 20.0807 60.4561 19.9602 60.6572 19.8113C62.962 18.1054 65.2575 16.3871 67.5593 14.6778C67.9431 14.3925 68.1877 14.0467 68.1877 13.5622C68.1854 12.8213 67.6189 12.2848 66.8049 12.2667C63.8967 12.2022 60.9879 12.1382 58.0791 12.0844C57.8369 12.0799 57.7317 12.0063 57.6542 11.7816C57.2854 10.7102 56.8958 9.64558 56.5143 8.57812C55.9321 6.95034 55.3524 5.32142 54.7673 3.6942C54.554 3.10048 54.065 2.75296 53.5124 2.75296C53.3603 2.75296 53.2043 2.779 53.047 2.83333C52.5539 3.00426 52.3291 3.3897 52.1672 3.84702C51.2261 6.50038 50.2735 9.14977 49.3318 11.8026C49.263 11.9973 49.1775 12.0788 48.9503 12.0827C46.0415 12.1359 43.1332 12.201 40.225 12.265C39.5435 12.2797 39.0643 12.5944 38.8781 13.1389C38.6793 13.7207 38.8712 14.251 39.4348 14.6716C41.7482 16.3973 44.0605 18.1247 46.3779 19.8453C46.5386 19.9647 46.5872 20.0609 46.5242 20.263C45.9935 21.957 45.4779 23.6549 44.9576 25.3518C44.6339 26.4079 44.3085 27.4635 43.9894 28.5208C43.7529 29.3035 44.1622 30.0252 44.9368 30.2097C45.0397 30.234 45.1397 30.2459 45.2368 30.2459M53.484 -1.10167e-05C52.6459 -1.10167e-05 51.8395 0.246194 51.1516 0.712003C50.4417 1.19253 49.9093 1.87568 49.6122 2.68787C48.8098 4.88051 48.0248 7.10032 47.2259 9.36937C44.4876 9.41296 42.2326 9.4622 40.1389 9.52332C39.592 9.53917 39.0677 9.63709 38.6232 9.80575C37.1659 10.3593 36.2757 11.455 36.0491 12.9742C35.8184 14.5187 36.3878 15.8539 37.6954 16.8342C39.7308 18.3607 41.7655 19.8719 43.3483 21.0457C42.7905 22.8348 42.2222 24.6845 41.6575 26.5488C41.4996 27.0713 41.358 27.5908 41.2441 28.008C41.2014 28.1647 41.1632 28.3062 41.1297 28.4251L41.1031 28.5202V28.6187C41.1019 29.9125 41.4233 30.8436 42.1459 31.6371C42.9332 32.5025 44.0524 32.9989 45.2154 32.9989C46.0634 32.9989 46.893 32.7419 47.6132 32.2563C49.3966 31.0547 51.2712 29.7823 53.4991 28.2632C54.8691 29.1982 56.2593 30.1412 57.6062 31.0541C58.1918 31.4509 58.7768 31.8476 59.3624 32.245C60.0867 32.7368 60.9231 32.9966 61.7816 32.9966C62.64 32.9966 63.4562 32.7385 64.1528 32.2506C65.6182 31.2239 66.2292 29.4597 65.7095 27.7567C65.184 26.0332 64.6459 24.2832 64.125 22.5898C63.969 22.0826 63.8129 21.5749 63.6574 21.0678L63.6562 21.0638C63.6545 21.0582 63.6528 21.052 63.651 21.0463C63.658 21.0412 63.6655 21.0355 63.6724 21.0305C64.2297 20.6144 64.7973 20.1928 65.3465 19.7847C66.6697 18.8016 68.0374 17.7851 69.3733 16.7691C70.0346 16.2665 70.5017 15.6632 70.7618 14.9766C71.0219 14.2901 71.0693 13.5345 70.9028 12.7314C70.7057 11.7816 70.212 10.9774 69.4756 10.4046C68.7536 9.84367 67.8339 9.53408 66.8159 9.51031C64.5175 9.45654 62.1423 9.40107 59.7693 9.36881C59.1791 7.68669 58.5693 5.9825 57.9785 4.33433C57.7906 3.81023 57.6033 3.28669 57.416 2.76258C57.0565 1.75739 56.4125 0.999526 55.5015 0.509945C54.8783 0.175446 54.1806 -0.00170898 53.4846 -0.00170898L53.484 -1.10167e-05ZM45.2357 29.5095C45.1964 29.5095 45.1565 29.5044 45.1131 29.4943C44.9461 29.4546 44.8189 29.3675 44.7455 29.2424C44.664 29.1037 44.6507 28.9215 44.709 28.729C44.9489 27.935 45.1964 27.1284 45.4357 26.3479C45.516 26.0864 45.5964 25.8244 45.6767 25.5629C45.7877 25.2007 45.8987 24.8384 46.0091 24.4756C46.4103 23.1642 46.8248 21.8081 47.2415 20.478C47.3479 20.1396 47.3624 19.6528 46.8311 19.2583C44.8813 17.8105 42.902 16.3339 40.9881 14.9053L39.8892 14.0858C39.5082 13.8016 39.5204 13.5747 39.5897 13.3721C39.6232 13.2736 39.7128 13.0115 40.2412 13.0002L41.0291 12.9827C43.6298 12.9255 46.3195 12.8666 48.9642 12.8179C49.3324 12.8112 49.8185 12.6714 50.0411 12.0437C50.4908 10.7759 50.9516 9.48767 51.3961 8.24192C51.8822 6.88072 52.3852 5.47367 52.8765 4.08756C53.0314 3.65005 53.1638 3.57251 53.2973 3.5261C53.3707 3.50063 53.4436 3.48761 53.5124 3.48761C53.7569 3.48761 53.9563 3.65175 54.0586 3.93701C54.4575 5.04692 54.861 6.17663 55.2512 7.26899C55.4356 7.78574 55.6206 8.30305 55.8056 8.8198C55.9096 9.11072 56.0142 9.40164 56.1189 9.69255C56.3929 10.4532 56.6755 11.24 56.9426 12.0154C57.1201 12.5304 57.5085 12.8083 58.0658 12.8185C60.8555 12.87 63.5528 12.9289 66.7882 13.0008C67.1934 13.0098 67.4356 13.2198 67.4368 13.5628C67.4368 13.6981 67.4113 13.8633 67.1055 14.0903C66.1639 14.7899 65.2078 15.5024 64.2829 16.1912C62.9469 17.1868 61.566 18.2158 60.2046 19.2232C59.7497 19.56 59.6028 20.0015 59.7682 20.5346C60.6376 23.3323 61.4879 26.1159 62.2781 28.707C62.3434 28.922 62.3284 29.1207 62.2342 29.2662C62.1515 29.3946 62.0105 29.4773 61.8261 29.5056C61.8024 29.509 61.7804 29.5107 61.7579 29.5107C61.6371 29.5107 61.5012 29.4552 61.3174 29.3301C60.5989 28.8417 59.8797 28.3538 59.1606 27.8659C57.549 26.7724 55.8819 25.6421 54.2488 24.5232C53.9968 24.3505 53.7517 24.2662 53.4997 24.2662C53.1632 24.2662 52.9077 24.4145 52.7447 24.5266C51.14 25.6252 49.5029 26.7351 47.919 27.8087C47.1629 28.3215 46.4062 28.8343 45.6507 29.3477C45.4386 29.492 45.3125 29.5084 45.2362 29.5084L45.2357 29.5095Z" fill="white"/>
</g>
<g clip-path="url(#clip2_1832_1573)">
<path d="M87.1096 51.7212C86.2828 51.7212 85.5189 51.388 84.9579 50.783C84.4518 50.2368 84.2262 49.5889 84.2271 48.682V48.6447L84.2373 48.6087C84.2632 48.5178 84.2931 48.4106 84.3261 48.2914C84.4135 47.9767 84.5223 47.5848 84.6431 47.1924C85.098 45.7166 85.5564 44.2532 86.005 42.8425C86.005 42.8416 86.0054 42.8408 86.0059 42.8399C86.0019 42.8369 85.997 42.833 85.9916 42.8292C84.7519 41.9266 83.1198 40.7363 81.485 39.5327C80.5646 38.8548 80.1637 37.9342 80.3256 36.87C80.4843 35.8242 81.1082 35.07 82.1294 34.6892C82.442 34.5726 82.813 34.5048 83.2027 34.4937C84.8438 34.4465 86.6155 34.4088 88.7783 34.3754C88.8322 34.3745 88.8554 34.3689 88.863 34.3664C88.8679 34.3599 88.8808 34.3402 88.8987 34.29C89.5274 32.5363 90.1437 30.8225 90.7743 29.1305C91.1934 28.0058 92.2588 27.2791 93.4878 27.2791C93.9765 27.2791 94.4662 27.4013 94.9045 27.6324C95.5426 27.969 95.9948 28.4921 96.2477 29.1867C96.3922 29.5837 96.5371 29.9808 96.6816 30.3778C97.1431 31.644 97.6207 32.9531 98.0814 34.2442C98.1282 34.3754 98.1309 34.3754 98.2571 34.3771C100.111 34.4011 101.969 34.444 103.765 34.4851C104.487 34.5018 105.136 34.715 105.644 35.1021C106.158 35.4945 106.503 36.048 106.641 36.7019C106.877 37.8215 106.506 38.7836 105.568 39.4851C104.539 40.2535 103.484 41.0232 102.464 41.7671C102.033 42.0818 101.602 42.3961 101.172 42.7113C101.105 42.7606 101.035 42.8116 101.001 42.842C101.01 42.8853 101.034 42.963 101.058 43.0384L101.419 44.191C101.821 45.4747 102.236 46.8018 102.642 48.1083C103.007 49.2827 102.578 50.4988 101.55 51.2062C101.062 51.542 100.488 51.7195 99.8892 51.7195C99.2863 51.7195 98.6981 51.5398 98.1884 51.1998C97.7358 50.898 97.2827 50.5965 96.8296 50.2947C95.7375 49.5675 94.6084 48.8158 93.5003 48.0723C93.4958 48.0749 93.4909 48.0783 93.4856 48.0817C91.7058 49.2737 90.2155 50.2672 88.7952 51.2075C88.2882 51.5433 87.7053 51.7208 87.11 51.7208L87.1096 51.7212ZM93.4994 45.663C93.6764 45.663 93.8191 45.7453 93.9114 45.8071C95.1698 46.6539 96.4541 47.5089 97.6956 48.336C98.2521 48.7069 98.8091 49.0778 99.3652 49.4491C99.5583 49.5782 99.7139 49.6356 99.8704 49.6356C99.9026 49.6356 99.9351 49.6331 99.9677 49.6283C100.192 49.5945 100.375 49.4851 100.483 49.3205C100.6 49.1412 100.624 48.9097 100.549 48.6683C99.94 46.7066 99.284 44.5988 98.6125 42.4759C98.5202 42.1834 98.5919 41.9708 98.8466 41.786C99.8972 41.0223 100.963 40.2423 101.994 39.4877C102.72 38.9573 103.445 38.4265 104.171 37.8969C104.427 37.7104 104.541 37.5179 104.541 37.2735C104.539 36.8636 104.225 36.581 103.757 36.5707C101.263 36.5163 99.1828 36.4717 97.0272 36.4326C96.7181 36.4271 96.5286 36.2941 96.4301 36.0137C96.2236 35.4254 96.0051 34.829 95.7937 34.2519C95.713 34.031 95.6318 33.8107 95.5516 33.5898C95.408 33.1954 95.2644 32.8009 95.1208 32.406C94.8158 31.5673 94.5108 30.7286 94.204 29.8903C94.0831 29.5606 93.8236 29.3634 93.5092 29.3634C93.4231 29.3634 93.3348 29.3784 93.2465 29.4084C93.0115 29.4881 92.8711 29.6553 92.7449 30.0048C92.3658 31.0545 91.9783 32.1204 91.6033 33.1512C91.2599 34.0954 90.9049 35.0713 90.5575 36.0317C90.4969 36.1998 90.3725 36.4241 89.9952 36.4309C87.9537 36.4678 85.8779 36.5124 83.8708 36.5557L83.2652 36.5686C82.9865 36.5746 82.6266 36.6612 82.4946 37.0407C82.3809 37.367 82.4888 37.6457 82.825 37.8918L83.6772 38.5161C85.1524 39.597 86.6779 40.7149 88.1807 41.8108C88.3243 41.9154 88.5031 42.0938 88.3957 42.4313C88.0737 43.4406 87.7535 44.4693 87.4436 45.464L87.1876 46.2851L87.0039 46.873C86.8184 47.4669 86.6266 48.0804 86.4407 48.6846C86.3733 48.9041 86.3925 49.1194 86.4955 49.2913C86.5927 49.4538 86.7542 49.5653 86.962 49.6142C87.0173 49.6271 87.0721 49.6335 87.1247 49.6335C87.2799 49.6335 87.4342 49.579 87.6095 49.462C88.191 49.0739 88.7725 48.6867 89.3544 48.2995C90.5776 47.4849 91.8427 46.6427 93.0829 45.8092C93.1845 45.741 93.3237 45.6626 93.4994 45.6626V45.663Z" fill="white"/>
<path d="M93.4876 27.5572C93.9157 27.5572 94.3536 27.6593 94.7648 27.8762C95.3578 28.1893 95.7512 28.6669 95.9737 29.2784C96.5868 30.963 97.2045 32.646 97.8074 34.3341C97.889 34.5631 97.9862 34.6518 98.2533 34.6553C100.088 34.6793 101.923 34.7213 103.758 34.7633C105.095 34.7942 106.103 35.5527 106.357 36.7571C106.572 37.7721 106.24 38.6292 105.39 39.2646C103.935 40.3512 102.462 41.4158 100.997 42.4895C100.772 42.6541 100.7 42.865 100.782 43.1219C101.31 44.8105 101.84 46.4986 102.364 48.188C102.694 49.2492 102.306 50.3439 101.382 50.9798C100.935 51.2872 100.414 51.4407 99.8899 51.4407C99.3655 51.4407 98.8241 51.2838 98.3541 50.9708C96.7911 49.9288 95.2263 48.8903 93.6664 47.8441C93.6035 47.8021 93.5518 47.7828 93.5014 47.7828C93.4434 47.7828 93.3882 47.8085 93.3204 47.8535C91.76 48.8989 90.1975 49.9413 88.6314 50.9785C88.16 51.2906 87.6311 51.4424 87.1103 51.4424C86.3932 51.4424 85.6909 51.1538 85.1754 50.5973C84.7312 50.1183 84.5172 49.5532 84.5181 48.6819C84.6117 48.3539 84.7562 47.8094 84.9221 47.2712C85.3694 45.8202 85.8229 44.371 86.2831 42.9234C86.3321 42.7695 86.2902 42.6957 86.1676 42.6061C84.6634 41.5106 83.1602 40.4138 81.6623 39.3105C80.84 38.7051 80.4627 37.9007 80.6135 36.9093C80.7571 35.9647 81.3082 35.2937 82.2353 34.9481C82.5399 34.8345 82.8842 34.7809 83.2124 34.7715C85.0692 34.7183 86.9266 34.6818 88.7839 34.6531C89.0086 34.6497 89.1023 34.5798 89.1736 34.38C89.7908 32.6584 90.4093 30.9377 91.0483 29.2239C91.439 28.176 92.4347 27.5572 93.4889 27.5572M87.1246 49.913C87.3582 49.913 87.5705 49.8276 87.7747 49.6917C89.5995 48.474 91.4287 47.2618 93.249 46.0381C93.344 45.9742 93.4216 45.9416 93.4992 45.9416C93.5768 45.9416 93.6513 45.9725 93.7449 46.0355C95.559 47.2558 97.381 48.4645 99.2 49.678C99.4069 49.816 99.6241 49.9142 99.8703 49.9142C99.9166 49.9142 99.9639 49.9108 100.013 49.9035C100.667 49.8049 101.026 49.2312 100.827 48.5885C100.186 46.5226 99.542 44.4572 98.8896 42.3947C98.8321 42.2125 98.866 42.1212 99.0212 42.0084C100.799 40.7161 102.57 39.4143 104.346 38.1194C104.642 37.9033 104.83 37.6413 104.83 37.2742C104.829 36.713 104.392 36.3065 103.764 36.2928C101.52 36.2439 99.2763 36.1954 97.0323 36.1547C96.8455 36.1513 96.7643 36.0955 96.7046 35.9253C96.4201 35.1136 96.1195 34.3071 95.8252 33.4984C95.3761 32.2652 94.9289 31.0312 94.4776 29.7985C94.313 29.3487 93.9358 29.0854 93.5094 29.0854C93.3922 29.0854 93.2718 29.1051 93.1505 29.1463C92.7701 29.2758 92.5966 29.5678 92.4718 29.9142C91.7458 31.9244 91.0109 33.9315 90.2844 35.9412C90.2314 36.0887 90.1654 36.1504 89.9901 36.1534C87.7462 36.1937 85.5027 36.243 83.2592 36.2915C82.7334 36.3026 82.3638 36.541 82.2202 36.9535C82.0668 37.3943 82.2148 37.7961 82.6496 38.1146C84.4342 39.422 86.218 40.7306 88.0057 42.0341C88.1297 42.1246 88.1671 42.1975 88.1185 42.3506C87.7092 43.6339 87.3114 44.9202 86.9101 46.2057C86.6603 47.0058 86.4093 47.8055 86.1631 48.6065C85.9807 49.1995 86.2965 49.7462 86.894 49.8859C86.9734 49.9044 87.0505 49.9134 87.1254 49.9134M93.4876 26.9998C92.841 26.9998 92.2189 27.1863 91.6882 27.5392C91.1406 27.9033 90.7299 28.4208 90.5007 29.0361C89.8818 30.6972 89.2762 32.3789 88.6599 34.0978C86.5475 34.1309 84.8079 34.1682 83.1927 34.2145C82.7709 34.2265 82.3664 34.3007 82.0235 34.4284C80.8993 34.8478 80.2126 35.6779 80.0378 36.8287C79.8598 37.9989 80.2991 39.0104 81.3078 39.753C82.8779 40.9094 84.4476 42.0543 85.6686 42.9436C85.2383 44.2989 84.7999 45.7002 84.3642 47.1126C84.2425 47.5084 84.1332 47.902 84.0454 48.218C84.0124 48.3368 83.9829 48.444 83.9571 48.534L83.9366 48.606V48.6806C83.9357 49.6608 84.1836 50.3662 84.741 50.9673C85.3484 51.6229 86.2117 51.999 87.1089 51.999C87.7631 51.999 88.403 51.8043 88.9587 51.4364C90.3344 50.5261 91.7806 49.5622 93.4992 48.4114C94.5561 49.1197 95.6285 49.8341 96.6676 50.5257C97.1193 50.8263 97.5706 51.1268 98.0223 51.4278C98.5811 51.8004 99.2263 51.9973 99.8885 51.9973C100.551 51.9973 101.18 51.8017 101.718 51.4321C102.848 50.6543 103.32 49.3178 102.919 48.0276C102.513 46.722 102.098 45.3962 101.696 44.1133C101.576 43.7291 101.456 43.3445 101.336 42.9603L101.335 42.9573C101.333 42.953 101.332 42.9483 101.331 42.944C101.336 42.9401 101.342 42.9358 101.347 42.932C101.777 42.6168 102.215 42.2974 102.639 41.9882C103.659 41.2435 104.714 40.4734 105.745 39.7037C106.255 39.323 106.615 38.8659 106.816 38.3458C107.017 37.8257 107.053 37.2532 106.925 36.6448C106.773 35.9253 106.392 35.316 105.824 34.8821C105.267 34.4572 104.557 34.2226 103.772 34.2046C101.999 34.1639 100.167 34.1219 98.3362 34.0974C97.8809 32.8231 97.4105 31.532 96.9547 30.2834C96.8098 29.8864 96.6653 29.4897 96.5208 29.0927C96.2435 28.3312 95.7467 27.757 95.0439 27.3862C94.5632 27.1327 94.0249 26.9985 93.488 26.9985L93.4876 26.9998ZM87.1246 49.3555C87.0942 49.3555 87.0635 49.3517 87.03 49.344C86.9011 49.3139 86.803 49.2479 86.7464 49.1532C86.6835 49.0481 86.6733 48.91 86.7183 48.7643C86.9034 48.1627 87.0942 47.5517 87.2788 46.9604C87.3408 46.7623 87.4028 46.5638 87.4648 46.3657C87.5504 46.0912 87.636 45.8168 87.7212 45.542C88.0307 44.5485 88.3504 43.5211 88.6719 42.5135C88.754 42.2571 88.7651 41.8883 88.3553 41.5895C86.8512 40.4927 85.3243 39.374 83.8478 38.2917L83.0001 37.6709C82.7062 37.4556 82.7156 37.2837 82.7691 37.1302C82.795 37.0556 82.8641 36.857 83.2717 36.8485L83.8795 36.8352C85.8857 36.7919 87.9607 36.7473 90.0008 36.7104C90.2849 36.7053 90.6599 36.5993 90.8316 36.1238C91.1785 35.1634 91.534 34.1875 91.8769 33.2437C92.2519 32.2125 92.6399 31.1466 93.0189 30.0965C93.1384 29.765 93.2405 29.7063 93.3436 29.6711C93.4002 29.6518 93.4564 29.642 93.5094 29.642C93.6981 29.642 93.8519 29.7663 93.9309 29.9824C94.2385 30.8233 94.5498 31.6791 94.8508 32.5066C94.9931 32.8981 95.1358 33.29 95.2785 33.6815C95.3587 33.9019 95.4395 34.1223 95.5202 34.3427C95.7315 34.919 95.9496 35.515 96.1556 36.1024C96.2925 36.4926 96.5922 36.7031 97.0221 36.7108C99.1742 36.7498 101.255 36.7944 103.751 36.8489C104.063 36.8558 104.25 37.0148 104.251 37.2747C104.251 37.3771 104.231 37.5024 103.996 37.6743C103.269 38.2043 102.532 38.7441 101.818 39.2659C100.788 40.0201 99.7222 40.7997 98.672 41.5629C98.3211 41.818 98.2078 42.1525 98.3354 42.5564C99.006 44.6758 99.662 46.7846 100.272 48.7475C100.322 48.9105 100.31 49.061 100.238 49.1712C100.174 49.2685 100.065 49.3311 99.9229 49.3525C99.9046 49.3551 99.8876 49.3564 99.8703 49.3564C99.7771 49.3564 99.6723 49.3144 99.5305 49.2196C98.9762 48.8496 98.4214 48.48 97.8667 48.1104C96.6234 47.282 95.3373 46.4257 94.0776 45.578C93.8831 45.4472 93.6941 45.3833 93.4996 45.3833C93.2401 45.3833 93.043 45.4957 92.9172 45.5806C91.6793 46.4128 90.4164 47.2537 89.1946 48.0671C88.6113 48.4555 88.0276 48.844 87.4447 49.2329C87.2811 49.3422 87.1839 49.3547 87.125 49.3547L87.1246 49.3555Z" fill="white"/>
</g>
<g clip-path="url(#clip3_1832_1573)">
<path d="M7.10958 51.7212C6.28282 51.7212 5.51893 51.388 4.95795 50.783C4.45181 50.2368 4.22617 49.5889 4.22706 48.682V48.6447L4.23732 48.6087C4.26318 48.5178 4.29306 48.4106 4.32606 48.2914C4.41346 47.9767 4.52227 47.5848 4.64312 47.1924C5.09797 45.7166 5.55639 44.2532 6.005 42.8425C6.005 42.8416 6.00545 42.8408 6.00589 42.8399C6.00188 42.8369 5.99697 42.833 5.99162 42.8292C4.75192 41.9266 3.1198 40.7363 1.48501 39.5327C0.564599 38.8548 0.163704 37.9342 0.325578 36.87C0.484331 35.8242 1.10819 35.07 2.12938 34.6892C2.44198 34.5726 2.813 34.5048 3.20275 34.4937C4.84379 34.4465 6.61549 34.4088 8.77827 34.3754C8.83223 34.3745 8.85541 34.3689 8.863 34.3664C8.8679 34.3599 8.88083 34.3402 8.89867 34.29C9.52744 32.5363 10.1437 30.8225 10.7743 29.1305C11.1934 28.0058 12.2588 27.2791 13.4878 27.2791C13.9765 27.2791 14.4662 27.4013 14.9045 27.6324C15.5426 27.969 15.9948 28.4921 16.2477 29.1867C16.3922 29.5837 16.5371 29.9808 16.6816 30.3778C17.1431 31.644 17.6207 32.9531 18.0814 34.2442C18.1282 34.3754 18.1309 34.3754 18.2571 34.3771C20.1108 34.4011 21.9686 34.444 23.7652 34.4851C24.4872 34.5018 25.1365 34.715 25.644 35.1021C26.1581 35.4945 26.5028 36.048 26.6411 36.7019C26.8774 37.8215 26.5064 38.7836 25.5677 39.4851C24.5389 40.2535 23.4843 41.0232 22.4644 41.7671C22.0332 42.0818 21.6025 42.3961 21.1721 42.7113C21.1048 42.7606 21.0352 42.8116 21.0009 42.842C21.0098 42.8853 21.0343 42.963 21.058 43.0384L21.4187 44.191C21.8205 45.4747 22.2361 46.8018 22.6419 48.1083C23.0067 49.2827 22.5782 50.4988 21.5498 51.2062C21.062 51.542 20.4876 51.7195 19.8892 51.7195C19.2863 51.7195 18.6981 51.5398 18.1884 51.1998C17.7358 50.898 17.2827 50.5965 16.8296 50.2947C15.7375 49.5675 14.6084 48.8158 13.5003 48.0723C13.4958 48.0749 13.4909 48.0783 13.4856 48.0817C11.7058 49.2737 10.2155 50.2672 8.79521 51.2075C8.28819 51.5433 7.70535 51.7208 7.11003 51.7208L7.10958 51.7212ZM13.4994 45.663C13.6764 45.663 13.8191 45.7453 13.9114 45.8071C15.1698 46.6539 16.4541 47.5089 17.6956 48.336C18.2521 48.7069 18.8091 49.0778 19.3652 49.4491C19.5583 49.5782 19.7139 49.6356 19.8704 49.6356C19.9026 49.6356 19.9351 49.6331 19.9677 49.6283C20.1915 49.5945 20.3748 49.4851 20.4827 49.3205C20.6004 49.1412 20.6241 48.9097 20.5492 48.6683C19.94 46.7066 19.284 44.5988 18.6125 42.4759C18.5202 42.1834 18.5919 41.9708 18.8466 41.786C19.8972 41.0223 20.9634 40.2423 21.9944 39.4877C22.7195 38.9573 23.4446 38.4265 24.1706 37.8969C24.4266 37.7104 24.5407 37.5179 24.5407 37.2735C24.5394 36.8636 24.2246 36.581 23.7572 36.5707C21.2627 36.5163 19.1828 36.4717 17.0272 36.4326C16.7181 36.4271 16.5286 36.2941 16.4301 36.0137C16.2236 35.4254 16.0051 34.829 15.7937 34.2519C15.713 34.031 15.6318 33.8107 15.5516 33.5898C15.408 33.1954 15.2644 32.8009 15.1208 32.406C14.8158 31.5673 14.5108 30.7286 14.204 29.8903C14.0831 29.5606 13.8236 29.3634 13.5092 29.3634C13.4231 29.3634 13.3348 29.3784 13.2465 29.4084C13.0115 29.4881 12.8711 29.6553 12.7449 30.0048C12.3658 31.0545 11.9783 32.1204 11.6033 33.1512C11.2599 34.0954 10.9049 35.0713 10.5575 36.0317C10.4969 36.1998 10.3725 36.4241 9.99522 36.4309C7.95373 36.4678 5.87791 36.5124 3.87076 36.5557L3.26518 36.5686C2.98647 36.5746 2.6266 36.6612 2.4946 37.0407C2.38089 37.367 2.48881 37.6457 2.82504 37.8918L3.67722 38.5161C5.15237 39.597 6.67792 40.7149 8.18072 41.8108C8.32431 41.9154 8.50313 42.0938 8.39566 42.4313C8.07369 43.4406 7.75351 44.4693 7.44359 45.464L7.18762 46.2851L7.00389 46.873C6.81839 47.4669 6.62663 48.0804 6.44068 48.6846C6.37334 48.9041 6.39252 49.1194 6.49553 49.2913C6.59274 49.4538 6.75417 49.5653 6.96198 49.6142C7.01727 49.6271 7.07212 49.6335 7.12474 49.6335C7.27993 49.6335 7.43422 49.579 7.60947 49.462C8.19097 49.0739 8.77247 48.6867 9.35442 48.2995C10.5776 47.4849 11.8427 46.6427 13.0829 45.8092C13.1845 45.741 13.3237 45.6626 13.4994 45.6626V45.663Z" fill="white"/>
<path d="M13.4876 27.5572C13.9157 27.5572 14.3536 27.6593 14.7648 27.8762C15.3578 28.1893 15.7512 28.6669 15.9737 29.2784C16.5868 30.963 17.2045 32.646 17.8074 34.3341C17.889 34.5631 17.9862 34.6518 18.2533 34.6553C20.0883 34.6793 21.9233 34.7213 23.7584 34.7633C25.0953 34.7942 26.1026 35.5527 26.3573 36.7571C26.5718 37.7721 26.2404 38.6292 25.39 39.2646C23.9349 40.3512 22.462 41.4158 20.9967 42.4895C20.7719 42.6541 20.7003 42.865 20.7817 43.1219C21.3097 44.8105 21.8395 46.4986 22.3644 48.188C22.6939 49.2492 22.3055 50.3439 21.3815 50.9798C20.9347 51.2872 20.4143 51.4407 19.8899 51.4407C19.3655 51.4407 18.8241 51.2838 18.3541 50.9708C16.7911 49.9288 15.2263 48.8903 13.6664 47.8441C13.6035 47.8021 13.5518 47.7828 13.5014 47.7828C13.4434 47.7828 13.3882 47.8085 13.3204 47.8535C11.76 48.8989 10.1975 49.9413 8.63137 50.9785C8.16001 51.2906 7.63114 51.4424 7.11028 51.4424C6.39322 51.4424 5.69087 51.1538 5.17537 50.5973C4.73122 50.1183 4.51717 49.5532 4.51807 48.6819C4.61171 48.3539 4.7562 47.8094 4.92208 47.2712C5.36935 45.8202 5.82287 44.371 6.28307 42.9234C6.33213 42.7695 6.29021 42.6957 6.16758 42.6061C4.66344 41.5106 3.1602 40.4138 1.6623 39.3105C0.839998 38.7051 0.462737 37.9007 0.613463 36.9093C0.757054 35.9647 1.30823 35.2937 2.23533 34.9481C2.5399 34.8345 2.88416 34.7809 3.21237 34.7715C5.06924 34.7183 6.92656 34.6818 8.78388 34.6531C9.00863 34.6497 9.10227 34.5798 9.17362 34.38C9.7908 32.6584 10.4093 30.9377 11.0483 29.2239C11.439 28.176 12.4347 27.5572 13.4889 27.5572M7.12455 49.913C7.35822 49.913 7.57049 49.8276 7.77473 49.6917C9.59949 48.474 11.4287 47.2618 13.249 46.0381C13.344 45.9742 13.4216 45.9416 13.4992 45.9416C13.5768 45.9416 13.6513 45.9725 13.7449 46.0355C15.559 47.2558 17.381 48.4645 19.2 49.678C19.4069 49.816 19.6241 49.9142 19.8703 49.9142C19.9166 49.9142 19.9639 49.9108 20.0125 49.9035C20.6667 49.8049 21.0261 49.2312 20.8268 48.5885C20.1855 46.5226 19.542 44.4572 18.8896 42.3947C18.8321 42.2125 18.866 42.1212 19.0212 42.0084C20.7991 40.7161 22.5699 39.4143 24.3457 38.1194C24.6418 37.9033 24.8304 37.6413 24.8304 37.2742C24.8286 36.713 24.3916 36.3065 23.7637 36.2928C21.5202 36.2439 19.2763 36.1954 17.0323 36.1547C16.8455 36.1513 16.7643 36.0955 16.7046 35.9253C16.4201 35.1136 16.1195 34.3071 15.8252 33.4984C15.3761 32.2652 14.9289 31.0312 14.4776 29.7985C14.313 29.3487 13.9358 29.0854 13.5094 29.0854C13.3922 29.0854 13.2718 29.1051 13.1505 29.1463C12.7701 29.2758 12.5966 29.5678 12.4718 29.9142C11.7458 31.9244 11.0109 33.9315 10.2844 35.9412C10.2314 36.0887 10.1654 36.1504 9.99013 36.1534C7.74619 36.1937 5.50269 36.243 3.25919 36.2915C2.73344 36.3026 2.36376 36.541 2.22017 36.9535C2.06676 37.3943 2.21481 37.7961 2.6496 38.1146C4.43423 39.422 6.21797 40.7306 8.00572 42.0341C8.12969 42.1246 8.16715 42.1975 8.11854 42.3506C7.70917 43.6339 7.3114 44.9202 6.91006 46.2057C6.66034 47.0058 6.40928 47.8055 6.16312 48.6065C5.98073 49.1995 6.29645 49.7462 6.89401 49.8859C6.97338 49.9044 7.05053 49.9134 7.12545 49.9134M13.4876 26.9998C12.841 26.9998 12.2189 27.1863 11.6882 27.5392C11.1406 27.9033 10.7299 28.4208 10.5007 29.0361C9.88177 30.6972 9.27619 32.3789 8.65991 34.0978C6.54751 34.1309 4.80792 34.1682 3.19275 34.2145C2.77089 34.2265 2.36643 34.3007 2.02351 34.4284C0.899307 34.8478 0.212568 35.6779 0.0377614 36.8287C-0.140166 37.9989 0.299079 39.0104 1.30778 39.753C2.87792 40.9094 4.44761 42.0543 5.66858 42.9436C5.23825 44.2989 4.7999 45.7002 4.36422 47.1126C4.24248 47.5084 4.13322 47.902 4.04538 48.218C4.01238 48.3368 3.98294 48.444 3.95708 48.534L3.93657 48.606V48.6806C3.93568 49.6608 4.18362 50.3662 4.74103 50.9673C5.3484 51.6229 6.21173 51.999 7.10895 51.999C7.76313 51.999 8.40305 51.8043 8.95868 51.4364C10.3344 50.5261 11.7806 49.5622 13.4992 48.4114C14.5561 49.1197 15.6285 49.8341 16.6676 50.5257C17.1193 50.8263 17.5706 51.1268 18.0223 51.4278C18.5811 51.8004 19.2263 51.9973 19.8885 51.9973C20.5508 51.9973 21.1804 51.8017 21.7178 51.4321C22.8482 50.6543 23.3196 49.3178 22.9187 48.0276C22.5133 46.722 22.0981 45.3962 21.6964 44.1133C21.576 43.7291 21.4556 43.3445 21.3356 42.9603L21.3347 42.9573C21.3334 42.953 21.332 42.9483 21.3307 42.944C21.336 42.9401 21.3418 42.9358 21.3472 42.932C21.7771 42.6168 22.215 42.2974 22.6386 41.9882C23.6594 41.2435 24.7144 40.4734 25.745 39.7037C26.2551 39.323 26.6155 38.8659 26.8161 38.3458C27.0168 37.8257 27.0534 37.2532 26.9249 36.6448C26.7729 35.9253 26.392 35.316 25.8239 34.8821C25.267 34.4572 24.5575 34.2226 23.7722 34.2046C21.9991 34.1639 20.1668 34.1219 18.3362 34.0974C17.8809 32.8231 17.4105 31.532 16.9547 30.2834C16.8098 29.8864 16.6653 29.4897 16.5208 29.0927C16.2435 28.3312 15.7467 27.757 15.0439 27.3862C14.5632 27.1327 14.0249 26.9985 13.488 26.9985L13.4876 26.9998ZM7.12455 49.3555C7.09423 49.3555 7.06346 49.3517 7.03002 49.344C6.90114 49.3139 6.80303 49.2479 6.7464 49.1532C6.68352 49.0481 6.67327 48.91 6.71831 48.7643C6.90337 48.1627 7.09423 47.5517 7.27885 46.9604C7.34083 46.7623 7.40282 46.5638 7.4648 46.3657C7.55042 46.0912 7.63604 45.8168 7.72121 45.542C8.03069 44.5485 8.35043 43.5211 8.67195 42.5135C8.754 42.2571 8.76515 41.8883 8.35533 41.5895C6.8512 40.4927 5.32432 39.374 3.84783 38.2917L3.0001 37.6709C2.70623 37.4556 2.7156 37.2837 2.76911 37.1302C2.79497 37.0556 2.86409 36.857 3.27168 36.8485L3.87949 36.8352C5.88575 36.7919 7.96068 36.7473 10.0008 36.7104C10.2849 36.7053 10.6599 36.5993 10.8316 36.1238C11.1785 35.1634 11.534 34.1875 11.8769 33.2437C12.2519 32.2125 12.6399 31.1466 13.0189 30.0965C13.1384 29.765 13.2405 29.7063 13.3436 29.6711C13.4002 29.6518 13.4564 29.642 13.5094 29.642C13.6981 29.642 13.8519 29.7663 13.9309 29.9824C14.2385 30.8233 14.5498 31.6791 14.8508 32.5066C14.9931 32.8981 15.1358 33.29 15.2785 33.6815C15.3587 33.9019 15.4395 34.1223 15.5202 34.3427C15.7315 34.919 15.9496 35.515 16.1556 36.1024C16.2925 36.4926 16.5922 36.7031 17.0221 36.7108C19.1742 36.7498 21.2549 36.7944 23.7508 36.8489C24.0634 36.8558 24.2502 37.0148 24.2511 37.2747C24.2511 37.3771 24.2315 37.5024 23.9956 37.6743C23.2692 38.2043 22.5316 38.7441 21.8181 39.2659C20.7875 40.0201 19.7222 40.7997 18.672 41.5629C18.3211 41.818 18.2078 42.1525 18.3354 42.5564C19.006 44.6758 19.662 46.7846 20.2716 48.7475C20.322 48.9105 20.3104 49.061 20.2377 49.1712C20.1739 49.2685 20.0651 49.3311 19.9229 49.3525C19.9046 49.3551 19.8876 49.3564 19.8703 49.3564C19.7771 49.3564 19.6723 49.3144 19.5305 49.2196C18.9762 48.8496 18.4214 48.48 17.8667 48.1104C16.6234 47.282 15.3373 46.4257 14.0776 45.578C13.8831 45.4472 13.6941 45.3833 13.4996 45.3833C13.2401 45.3833 13.043 45.4957 12.9172 45.5806C11.6793 46.4128 10.4164 47.2537 9.19458 48.0671C8.6113 48.4555 8.02757 48.844 7.44473 49.2329C7.28108 49.3422 7.18386 49.3547 7.125 49.3547L7.12455 49.3555Z" fill="white"/>
</g>
<defs>
<clipPath id="clip0_1832_1573">
<rect width="62" height="71" fill="white" transform="translate(23 44)"/>
</clipPath>
<clipPath id="clip1_1832_1573">
<rect width="35" height="33" fill="white" transform="translate(36)"/>
</clipPath>
<clipPath id="clip2_1832_1573">
<rect width="27" height="25" fill="white" transform="translate(80 27)"/>
</clipPath>
<clipPath id="clip3_1832_1573">
<rect width="27" height="25" fill="white" transform="translate(0 27)"/>
</clipPath>
</defs>
</svg>
