<svg width="32" height="32" viewBox="0 0 32 32" fill="none" xmlns="http://www.w3.org/2000/svg">
<mask id="path-1-outside-1_2364_1378" maskUnits="userSpaceOnUse" x="0" y="0" width="32" height="32" fill="black">
<rect fill="white" width="32" height="32"/>
<path d="M19.9667 13.8401C20.2517 13.7897 20.5016 13.7447 20.7522 13.7012C25.5676 12.8657 30.0697 16.0372 30.8781 20.8354C31.6957 25.6908 28.3092 30.3293 23.4472 30.9219C20.0126 31.3404 17.2595 30.0689 15.214 27.2975C13.6399 25.1646 13.3137 22.7736 13.8677 20.226C13.8913 20.1175 13.9693 19.9976 13.8646 19.9044C13.7584 19.809 13.6506 19.9128 13.5467 19.9442C11.4286 20.5887 9.32964 20.4963 7.30324 19.6364C4.03746 18.2496 2.0103 15.8127 1.37456 12.2975C1.04294 10.4624 1.2439 8.65788 1.99502 6.94574C3.40479 3.72992 5.85068 1.74591 9.30901 1.15025C12.2615 0.641643 14.9267 1.43128 17.1747 3.413C19.4357 5.40618 20.5108 7.95989 20.4703 10.9726C20.4596 11.7569 20.3213 12.5274 20.1088 13.2834C20.0607 13.4545 20.0202 13.6286 19.9667 13.8401ZM30.3005 22.2833C30.2951 21.8442 30.2707 21.4051 30.2004 20.9721C29.7969 18.4771 28.4643 16.6031 26.3019 15.3408C24.3106 14.1785 22.1857 13.9104 19.9637 14.6115C19.7482 14.6794 19.5602 14.7726 19.451 14.9879C18.4706 16.9231 17.0142 18.3809 15.0703 19.3493C14.8793 19.4447 14.7647 19.5936 14.6998 19.7968C14.3322 20.9492 14.2039 22.1221 14.3605 23.3249C14.9236 27.6473 18.8504 30.7371 23.192 30.2705C27.1921 29.8413 30.3241 26.3216 30.3005 22.284V22.2833ZM10.8907 1.70544C6.10589 1.64205 2.00571 5.63223 1.93083 10.4265C1.85136 15.5179 5.72613 19.5898 10.7876 19.6379C15.6832 19.6845 19.7199 15.7677 19.7826 10.7564C19.8445 5.80787 15.8757 1.77187 10.8907 1.70544Z"/>
<path d="M11.9696 30.4912C9.08055 30.424 6.60179 29.5305 4.63729 27.422C3.78913 26.5125 3.15645 25.464 2.67278 24.3223C2.53829 24.0046 2.30015 23.859 1.95834 23.8855C1.70619 23.9053 1.46014 23.9007 1.25231 23.7289C0.932149 23.4654 0.912282 23.0546 1.21792 22.659C1.58546 22.184 1.96674 21.7197 2.34192 21.2508C2.81261 20.6628 3.28177 20.0732 3.75322 19.486C4.22008 18.9048 4.56087 18.8674 5.11791 19.3546C6.13646 20.2458 7.14966 21.1446 8.16286 22.042C8.41578 22.2657 8.55866 22.5338 8.4471 22.8805C8.33554 23.2287 8.06047 23.3547 7.72426 23.3883C7.55387 23.4051 7.38271 23.4349 7.21155 23.4349C6.96856 23.4349 6.9082 23.5426 6.97621 23.7595C7.24517 24.6155 7.63639 25.4021 8.26295 26.0581C9.50768 27.3602 11.0428 28.2078 12.6879 28.8829C12.8468 28.9478 13.0103 29.0036 13.1616 29.083C13.4856 29.2541 13.6094 29.5175 13.546 29.8658C13.4879 30.1842 13.2686 30.3843 12.9087 30.4209C12.5771 30.4545 12.2432 30.4706 11.9689 30.4904L11.9696 30.4912ZM12.681 29.6825C12.4288 29.5702 12.1767 29.4595 11.9253 29.3449C10.336 28.6179 8.84673 27.7489 7.67077 26.4186C6.88069 25.5243 6.35728 24.5078 6.18765 23.3196C6.15021 23.0553 6.2633 22.8919 6.52691 22.8102C6.78824 22.7293 7.0572 22.7621 7.32234 22.7499C7.41633 22.7453 7.52865 22.769 7.57832 22.6666C7.64021 22.5383 7.52101 22.4803 7.44689 22.4131C6.5888 21.6288 5.72766 20.8476 4.8711 20.0618C4.52496 19.7441 4.45008 19.751 4.15284 20.1221C3.47356 20.9698 2.78739 21.8113 2.10581 22.656C2.00419 22.7812 1.77648 22.8721 1.88804 23.0722C1.9889 23.2531 2.1998 23.1401 2.36331 23.15C2.37248 23.15 2.38165 23.1462 2.39159 23.1447C2.80726 23.079 3.02579 23.2096 3.14423 23.6075C3.50259 24.808 4.13756 25.8595 4.95974 26.7859C7.01441 29.0998 9.66432 29.894 12.681 29.6825Z"/>
<path d="M19.4441 1.47404C21.8571 1.55728 24.0065 2.21709 25.845 3.73985C27.3289 4.9686 28.2809 6.55092 28.896 8.35471C28.9327 8.46315 28.9701 8.57083 29.0076 8.67927C29.0695 8.8572 29.194 8.93128 29.382 8.91982C29.515 8.91142 29.6502 8.9076 29.7816 8.92135C30.0987 8.95419 30.341 9.09623 30.4579 9.41239C30.5725 9.7232 30.4579 9.9714 30.25 10.1929C29.8321 10.6381 29.4149 11.0841 28.9931 11.5247C28.4391 12.1036 27.8859 12.6832 27.3235 13.2544C26.904 13.6813 26.564 13.6836 26.1491 13.2521C25.171 12.2341 24.2029 11.2063 23.2271 10.1852C23.0086 9.95689 22.9269 9.70258 23.0323 9.4017C23.1393 9.09547 23.3792 8.95495 23.6848 8.92288C23.8545 8.90531 24.0279 8.91219 24.1991 8.9183C24.5338 8.93051 24.6171 8.85262 24.5552 8.51508C24.3932 7.62311 23.9935 6.84035 23.422 6.14159C22.3836 4.87161 21.0854 3.93535 19.632 3.19765C19.4028 3.08157 19.1751 2.95938 18.9505 2.83414C18.5929 2.63406 18.463 2.35761 18.5554 2.00785C18.6502 1.64816 18.8817 1.48244 19.3004 1.47252C19.3669 1.47099 19.4341 1.47252 19.4425 1.47252L19.4441 1.47404ZM19.4853 2.20793C19.5174 2.32477 19.5931 2.33241 19.6473 2.36295C20.2296 2.68828 20.8111 3.01589 21.3673 3.38551C22.6678 4.25075 23.8071 5.27712 24.6002 6.64256C25.0579 7.43067 25.3154 8.27834 25.2956 9.20085C25.2902 9.45134 25.1978 9.60636 24.9364 9.61858C24.6415 9.63233 24.3458 9.63233 24.0509 9.64149C23.9783 9.64378 23.8766 9.6056 23.84 9.6812C23.7934 9.77742 23.9026 9.8263 23.9569 9.88434C24.7729 10.7648 25.5928 11.6423 26.4089 12.5236C26.7374 12.8787 26.755 12.8703 27.0813 12.5167C27.8248 11.7118 28.5828 10.9206 29.327 10.1157C29.4401 9.99354 29.7182 9.93779 29.6204 9.71633C29.5279 9.50556 29.2941 9.6476 29.1253 9.64531C28.6347 9.63767 28.5614 9.59109 28.4146 9.12449C28.3146 8.8068 28.2251 8.48453 28.1113 8.17219C27.0614 5.29621 25.0877 3.39773 22.1238 2.57144C21.271 2.33394 20.4007 2.17127 19.4853 2.20793Z"/>
<path d="M20.5413 23.7847C20.5436 23.5548 20.6162 23.3982 20.8638 23.3837C21.1121 23.3692 21.1923 23.522 21.2283 23.7327C21.3352 24.3612 21.5996 24.6697 22.0993 24.7576C22.7144 24.866 23.2684 24.4842 23.3616 23.887C23.4602 23.2562 23.0445 22.7079 22.3989 22.643C21.8739 22.5903 21.3918 22.4666 21.0128 22.0603C20.2173 21.2088 20.468 19.7739 21.5163 19.2691C21.7532 19.1553 21.9847 19.0705 22.0046 18.746C22.0138 18.5894 22.1712 18.555 22.3148 18.5596C22.4745 18.565 22.612 18.6291 22.6197 18.7987C22.6304 19.043 22.7717 19.1362 22.975 19.2194C23.6382 19.4905 23.9729 20.0175 24.0715 20.7078C24.1097 20.9751 24.0012 21.1424 23.7735 21.1775C23.5083 21.2187 23.4205 21.0484 23.3823 20.8308C23.3387 20.5849 23.2822 20.3458 23.1148 20.1481C22.8122 19.7914 22.3225 19.6708 21.8938 19.8495C21.4957 20.0152 21.2069 20.4719 21.2321 20.8987C21.2603 21.3814 21.5805 21.7808 22.0397 21.8938C22.178 21.9274 22.3217 21.9419 22.4638 21.9557C23.2944 22.0351 23.9133 22.6223 24.0562 23.47C24.1807 24.2077 23.7567 24.989 23.0384 25.3112C22.8107 25.4136 22.609 25.5006 22.6052 25.8038C22.6029 25.9672 22.4417 26.0024 22.3079 26.013C22.1612 26.0245 22.0237 25.9604 22.0076 25.8076C21.9786 25.5212 21.7838 25.4136 21.5606 25.3089C20.9127 25.0042 20.591 24.4773 20.5413 23.7862V23.7847Z"/>
<path d="M12.3364 11.0085C11.9566 10.9741 11.6357 11.0665 11.3469 11.3437C11.0443 11.6339 10.4918 11.5537 10.1893 11.22C9.8798 10.8786 9.84618 10.3479 10.1702 10.0569C10.4582 9.79881 10.5469 9.50861 10.5201 9.14434C10.5018 8.89844 10.5155 8.64948 10.5178 8.40206C10.5201 8.18517 10.6049 8.01946 10.8426 8.01411C11.0756 8.00877 11.1879 8.15844 11.1879 8.38067C11.1879 8.65483 11.2109 8.92822 11.1558 9.20467C11.0596 9.69037 11.6059 10.3311 12.1003 10.3364C12.3096 10.3387 12.5198 10.3326 12.7291 10.3433C12.9286 10.3532 13.0447 10.4563 13.0447 10.6702C13.0447 10.8794 12.9347 10.9894 12.7353 11.0062C12.6031 11.0169 12.4686 11.0085 12.3356 11.0085H12.3364Z"/>
<path d="M7.71204 15.5515C7.82894 15.1407 8.04671 14.755 8.36229 14.4289C8.46239 14.3258 8.59534 14.3686 8.7069 14.435C8.81235 14.4977 8.88035 14.5947 8.84902 14.7214C8.7451 15.1468 8.51817 15.5072 8.22704 15.8272C8.13229 15.9311 8.00163 15.9074 7.88167 15.8524C7.76629 15.7997 7.70974 15.7081 7.71204 15.5515Z"/>
<path d="M6.78594 8.67621C6.4016 8.52272 5.99433 8.33867 5.68181 8.008C5.59394 7.91483 5.62756 7.77279 5.71238 7.66511C5.80407 7.54904 5.9332 7.48794 6.06616 7.54216C6.42758 7.68955 6.77983 7.8568 7.06637 8.13477C7.16647 8.23176 7.20773 8.33333 7.13896 8.46544C7.07248 8.59374 6.97238 8.66934 6.78594 8.67774V8.67621Z"/>
<path d="M15.6992 13.8272C15.5724 13.8165 15.4493 13.7393 15.3271 13.6676C15.1055 13.5377 14.8847 13.4056 14.6723 13.2621C14.5255 13.1628 14.5003 13.0223 14.5829 12.8611C14.6654 12.7 14.7937 12.6366 14.9603 12.6985C15.3286 12.8352 15.6725 13.0161 15.9628 13.288C16.0652 13.3842 16.0935 13.4957 16.0346 13.624C15.9735 13.7569 15.8719 13.8317 15.6992 13.8272Z"/>
<path d="M14.955 8.68309C14.7257 8.66094 14.6088 8.57464 14.5485 8.41886C14.4935 8.27834 14.5676 8.17677 14.6692 8.09735C14.9557 7.87283 15.269 7.69032 15.6037 7.54904C15.7336 7.49405 15.8727 7.51085 15.9659 7.63457C16.0484 7.74377 16.1202 7.87436 16.0224 8.00113C15.7366 8.37227 15.2789 8.46468 14.955 8.68309Z"/>
<path d="M6.00503 13.8539C5.82776 13.831 5.7162 13.7432 5.65889 13.6042C5.60311 13.469 5.63979 13.3453 5.76663 13.2552C6.06005 13.0459 6.3611 12.8489 6.69578 12.7099C6.8402 12.6496 6.97773 12.6549 7.07707 12.7932C7.15806 12.9054 7.21384 13.0352 7.11527 13.1597C6.82644 13.524 6.37562 13.6233 6.00503 13.8539Z"/>
<path d="M12.869 14.7619C12.8567 14.5511 12.9416 14.4572 13.0692 14.393C13.2021 14.3258 13.3129 14.377 13.3985 14.477C13.6606 14.7825 13.8631 15.1223 13.9807 15.5095C14.0212 15.6424 13.9876 15.7547 13.8722 15.8341C13.7599 15.9105 13.6384 15.9211 13.5292 15.8326C13.1693 15.5393 12.9675 15.1514 12.8697 14.7627L12.869 14.7619Z"/>
<path d="M5.72384 11.0085C5.56261 11.0085 5.40062 11.013 5.2394 11.0077C5.02392 11.0001 4.90549 10.8878 4.90472 10.6679C4.90319 10.4571 5.0201 10.3525 5.22259 10.3486C5.54504 10.3425 5.86826 10.341 6.19071 10.3464C6.40389 10.3502 6.53226 10.464 6.52997 10.6831C6.52768 10.9061 6.38785 11.0031 6.17925 11.0108C6.02719 11.0161 5.87513 11.0115 5.72308 11.0115C5.72308 11.0108 5.72308 11.0092 5.72308 11.0085H5.72384Z"/>
<path d="M12.8575 6.6502C12.8514 6.55779 12.8743 6.47608 12.9186 6.40124C13.0776 6.13243 13.2319 5.86056 13.4 5.5971C13.5001 5.44054 13.6468 5.39625 13.818 5.49018C13.9731 5.57495 14.0197 5.69332 13.9647 5.86973C13.8455 6.24774 13.6568 6.57994 13.3847 6.86708C13.2839 6.97399 13.1716 6.98239 13.0485 6.93123C12.9255 6.8793 12.8476 6.78995 12.8575 6.6502Z"/>
<path d="M8.85208 6.56848C8.85208 6.77009 8.78254 6.89152 8.63125 6.94268C8.48531 6.99156 8.34395 6.96788 8.25684 6.82202C8.08721 6.53641 7.91682 6.2508 7.75712 5.95908C7.65549 5.77274 7.69523 5.60855 7.88396 5.49553C8.06734 5.38556 8.22093 5.44436 8.32408 5.61008C8.52428 5.93006 8.76191 6.23247 8.85208 6.56848Z"/>
<path d="M16.0048 10.3425C16.1668 10.3425 16.3296 10.3357 16.4908 10.3441C16.678 10.354 16.7911 10.4586 16.8041 10.6495C16.8179 10.8557 16.7101 10.9901 16.5114 11.0001C16.1691 11.0176 15.8253 11.0176 15.483 11.0016C15.2858 10.9924 15.1689 10.8588 15.1781 10.6564C15.1865 10.4693 15.3011 10.3578 15.4898 10.3471C15.661 10.3372 15.8329 10.3448 16.0041 10.3448V10.3425H16.0048Z"/>
<path d="M10.5194 15.8387C10.5194 15.6768 10.5132 15.5149 10.5209 15.353C10.53 15.1537 10.6294 15.0345 10.8395 15.0238C11.0382 15.0139 11.1627 15.1239 11.1727 15.3026C11.1925 15.663 11.1918 16.0258 11.1734 16.3862C11.1643 16.5718 11.0267 16.6734 10.8365 16.6604C10.6523 16.6474 10.5331 16.5443 10.5232 16.3526C10.514 16.1816 10.5216 16.0097 10.5216 15.8387C10.5209 15.8387 10.5201 15.8387 10.5194 15.8387Z"/>
<path d="M11.1834 5.52913C11.1834 5.69026 11.1948 5.85293 11.1803 6.0133C11.1627 6.2065 11.0603 6.33175 10.8479 6.32793C10.6386 6.32411 10.5316 6.20727 10.527 6.00642C10.5194 5.68339 10.5171 5.36036 10.5247 5.03733C10.5293 4.84183 10.6233 4.71735 10.8418 4.71582C11.068 4.71429 11.175 4.83266 11.1856 5.04496C11.1941 5.2061 11.1872 5.368 11.1872 5.52913C11.1856 5.52913 11.1841 5.52913 11.1826 5.52913H11.1834Z"/>
</mask>
<path d="M19.9667 13.8401C20.2517 13.7897 20.5016 13.7447 20.7522 13.7012C25.5676 12.8657 30.0697 16.0372 30.8781 20.8354C31.6957 25.6908 28.3092 30.3293 23.4472 30.9219C20.0126 31.3404 17.2595 30.0689 15.214 27.2975C13.6399 25.1646 13.3137 22.7736 13.8677 20.226C13.8913 20.1175 13.9693 19.9976 13.8646 19.9044C13.7584 19.809 13.6506 19.9128 13.5467 19.9442C11.4286 20.5887 9.32964 20.4963 7.30324 19.6364C4.03746 18.2496 2.0103 15.8127 1.37456 12.2975C1.04294 10.4624 1.2439 8.65788 1.99502 6.94574C3.40479 3.72992 5.85068 1.74591 9.30901 1.15025C12.2615 0.641643 14.9267 1.43128 17.1747 3.413C19.4357 5.40618 20.5108 7.95989 20.4703 10.9726C20.4596 11.7569 20.3213 12.5274 20.1088 13.2834C20.0607 13.4545 20.0202 13.6286 19.9667 13.8401ZM30.3005 22.2833C30.2951 21.8442 30.2707 21.4051 30.2004 20.9721C29.7969 18.4771 28.4643 16.6031 26.3019 15.3408C24.3106 14.1785 22.1857 13.9104 19.9637 14.6115C19.7482 14.6794 19.5602 14.7726 19.451 14.9879C18.4706 16.9231 17.0142 18.3809 15.0703 19.3493C14.8793 19.4447 14.7647 19.5936 14.6998 19.7968C14.3322 20.9492 14.2039 22.1221 14.3605 23.3249C14.9236 27.6473 18.8504 30.7371 23.192 30.2705C27.1921 29.8413 30.3241 26.3216 30.3005 22.284V22.2833ZM10.8907 1.70544C6.10589 1.64205 2.00571 5.63223 1.93083 10.4265C1.85136 15.5179 5.72613 19.5898 10.7876 19.6379C15.6832 19.6845 19.7199 15.7677 19.7826 10.7564C19.8445 5.80787 15.8757 1.77187 10.8907 1.70544Z" fill="#F9E9B3"/>
<path d="M11.9696 30.4912C9.08055 30.424 6.60179 29.5305 4.63729 27.422C3.78913 26.5125 3.15645 25.464 2.67278 24.3223C2.53829 24.0046 2.30015 23.859 1.95834 23.8855C1.70619 23.9053 1.46014 23.9007 1.25231 23.7289C0.932149 23.4654 0.912282 23.0546 1.21792 22.659C1.58546 22.184 1.96674 21.7197 2.34192 21.2508C2.81261 20.6628 3.28177 20.0732 3.75322 19.486C4.22008 18.9048 4.56087 18.8674 5.11791 19.3546C6.13646 20.2458 7.14966 21.1446 8.16286 22.042C8.41578 22.2657 8.55866 22.5338 8.4471 22.8805C8.33554 23.2287 8.06047 23.3547 7.72426 23.3883C7.55387 23.4051 7.38271 23.4349 7.21155 23.4349C6.96856 23.4349 6.9082 23.5426 6.97621 23.7595C7.24517 24.6155 7.63639 25.4021 8.26295 26.0581C9.50768 27.3602 11.0428 28.2078 12.6879 28.8829C12.8468 28.9478 13.0103 29.0036 13.1616 29.083C13.4856 29.2541 13.6094 29.5175 13.546 29.8658C13.4879 30.1842 13.2686 30.3843 12.9087 30.4209C12.5771 30.4545 12.2432 30.4706 11.9689 30.4904L11.9696 30.4912ZM12.681 29.6825C12.4288 29.5702 12.1767 29.4595 11.9253 29.3449C10.336 28.6179 8.84673 27.7489 7.67077 26.4186C6.88069 25.5243 6.35728 24.5078 6.18765 23.3196C6.15021 23.0553 6.2633 22.8919 6.52691 22.8102C6.78824 22.7293 7.0572 22.7621 7.32234 22.7499C7.41633 22.7453 7.52865 22.769 7.57832 22.6666C7.64021 22.5383 7.52101 22.4803 7.44689 22.4131C6.5888 21.6288 5.72766 20.8476 4.8711 20.0618C4.52496 19.7441 4.45008 19.751 4.15284 20.1221C3.47356 20.9698 2.78739 21.8113 2.10581 22.656C2.00419 22.7812 1.77648 22.8721 1.88804 23.0722C1.9889 23.2531 2.1998 23.1401 2.36331 23.15C2.37248 23.15 2.38165 23.1462 2.39159 23.1447C2.80726 23.079 3.02579 23.2096 3.14423 23.6075C3.50259 24.808 4.13756 25.8595 4.95974 26.7859C7.01441 29.0998 9.66432 29.894 12.681 29.6825Z" fill="#F9E9B3"/>
<path d="M19.4441 1.47404C21.8571 1.55728 24.0065 2.21709 25.845 3.73985C27.3289 4.9686 28.2809 6.55092 28.896 8.35471C28.9327 8.46315 28.9701 8.57083 29.0076 8.67927C29.0695 8.8572 29.194 8.93128 29.382 8.91982C29.515 8.91142 29.6502 8.9076 29.7816 8.92135C30.0987 8.95419 30.341 9.09623 30.4579 9.41239C30.5725 9.7232 30.4579 9.9714 30.25 10.1929C29.8321 10.6381 29.4149 11.0841 28.9931 11.5247C28.4391 12.1036 27.8859 12.6832 27.3235 13.2544C26.904 13.6813 26.564 13.6836 26.1491 13.2521C25.171 12.2341 24.2029 11.2063 23.2271 10.1852C23.0086 9.95689 22.9269 9.70258 23.0323 9.4017C23.1393 9.09547 23.3792 8.95495 23.6848 8.92288C23.8545 8.90531 24.0279 8.91219 24.1991 8.9183C24.5338 8.93051 24.6171 8.85262 24.5552 8.51508C24.3932 7.62311 23.9935 6.84035 23.422 6.14159C22.3836 4.87161 21.0854 3.93535 19.632 3.19765C19.4028 3.08157 19.1751 2.95938 18.9505 2.83414C18.5929 2.63406 18.463 2.35761 18.5554 2.00785C18.6502 1.64816 18.8817 1.48244 19.3004 1.47252C19.3669 1.47099 19.4341 1.47252 19.4425 1.47252L19.4441 1.47404ZM19.4853 2.20793C19.5174 2.32477 19.5931 2.33241 19.6473 2.36295C20.2296 2.68828 20.8111 3.01589 21.3673 3.38551C22.6678 4.25075 23.8071 5.27712 24.6002 6.64256C25.0579 7.43067 25.3154 8.27834 25.2956 9.20085C25.2902 9.45134 25.1978 9.60636 24.9364 9.61858C24.6415 9.63233 24.3458 9.63233 24.0509 9.64149C23.9783 9.64378 23.8766 9.6056 23.84 9.6812C23.7934 9.77742 23.9026 9.8263 23.9569 9.88434C24.7729 10.7648 25.5928 11.6423 26.4089 12.5236C26.7374 12.8787 26.755 12.8703 27.0813 12.5167C27.8248 11.7118 28.5828 10.9206 29.327 10.1157C29.4401 9.99354 29.7182 9.93779 29.6204 9.71633C29.5279 9.50556 29.2941 9.6476 29.1253 9.64531C28.6347 9.63767 28.5614 9.59109 28.4146 9.12449C28.3146 8.8068 28.2251 8.48453 28.1113 8.17219C27.0614 5.29621 25.0877 3.39773 22.1238 2.57144C21.271 2.33394 20.4007 2.17127 19.4853 2.20793Z" fill="#F9E9B3"/>
<path d="M20.5413 23.7847C20.5436 23.5548 20.6162 23.3982 20.8638 23.3837C21.1121 23.3692 21.1923 23.522 21.2283 23.7327C21.3352 24.3612 21.5996 24.6697 22.0993 24.7576C22.7144 24.866 23.2684 24.4842 23.3616 23.887C23.4602 23.2562 23.0445 22.7079 22.3989 22.643C21.8739 22.5903 21.3918 22.4666 21.0128 22.0603C20.2173 21.2088 20.468 19.7739 21.5163 19.2691C21.7532 19.1553 21.9847 19.0705 22.0046 18.746C22.0138 18.5894 22.1712 18.555 22.3148 18.5596C22.4745 18.565 22.612 18.6291 22.6197 18.7987C22.6304 19.043 22.7717 19.1362 22.975 19.2194C23.6382 19.4905 23.9729 20.0175 24.0715 20.7078C24.1097 20.9751 24.0012 21.1424 23.7735 21.1775C23.5083 21.2187 23.4205 21.0484 23.3823 20.8308C23.3387 20.5849 23.2822 20.3458 23.1148 20.1481C22.8122 19.7914 22.3225 19.6708 21.8938 19.8495C21.4957 20.0152 21.2069 20.4719 21.2321 20.8987C21.2603 21.3814 21.5805 21.7808 22.0397 21.8938C22.178 21.9274 22.3217 21.9419 22.4638 21.9557C23.2944 22.0351 23.9133 22.6223 24.0562 23.47C24.1807 24.2077 23.7567 24.989 23.0384 25.3112C22.8107 25.4136 22.609 25.5006 22.6052 25.8038C22.6029 25.9672 22.4417 26.0024 22.3079 26.013C22.1612 26.0245 22.0237 25.9604 22.0076 25.8076C21.9786 25.5212 21.7838 25.4136 21.5606 25.3089C20.9127 25.0042 20.591 24.4773 20.5413 23.7862V23.7847Z" fill="#F9E9B3"/>
<path d="M12.3364 11.0085C11.9566 10.9741 11.6357 11.0665 11.3469 11.3437C11.0443 11.6339 10.4918 11.5537 10.1893 11.22C9.8798 10.8786 9.84618 10.3479 10.1702 10.0569C10.4582 9.79881 10.5469 9.50861 10.5201 9.14434C10.5018 8.89844 10.5155 8.64948 10.5178 8.40206C10.5201 8.18517 10.6049 8.01946 10.8426 8.01411C11.0756 8.00877 11.1879 8.15844 11.1879 8.38067C11.1879 8.65483 11.2109 8.92822 11.1558 9.20467C11.0596 9.69037 11.6059 10.3311 12.1003 10.3364C12.3096 10.3387 12.5198 10.3326 12.7291 10.3433C12.9286 10.3532 13.0447 10.4563 13.0447 10.6702C13.0447 10.8794 12.9347 10.9894 12.7353 11.0062C12.6031 11.0169 12.4686 11.0085 12.3356 11.0085H12.3364Z" fill="#F9E9B3"/>
<path d="M7.71204 15.5515C7.82894 15.1407 8.04671 14.755 8.36229 14.4289C8.46239 14.3258 8.59534 14.3686 8.7069 14.435C8.81235 14.4977 8.88035 14.5947 8.84902 14.7214C8.7451 15.1468 8.51817 15.5072 8.22704 15.8272C8.13229 15.9311 8.00163 15.9074 7.88167 15.8524C7.76629 15.7997 7.70974 15.7081 7.71204 15.5515Z" fill="#F9E9B3"/>
<path d="M6.78594 8.67621C6.4016 8.52272 5.99433 8.33867 5.68181 8.008C5.59394 7.91483 5.62756 7.77279 5.71238 7.66511C5.80407 7.54904 5.9332 7.48794 6.06616 7.54216C6.42758 7.68955 6.77983 7.8568 7.06637 8.13477C7.16647 8.23176 7.20773 8.33333 7.13896 8.46544C7.07248 8.59374 6.97238 8.66934 6.78594 8.67774V8.67621Z" fill="#F9E9B3"/>
<path d="M15.6992 13.8272C15.5724 13.8165 15.4493 13.7393 15.3271 13.6676C15.1055 13.5377 14.8847 13.4056 14.6723 13.2621C14.5255 13.1628 14.5003 13.0223 14.5829 12.8611C14.6654 12.7 14.7937 12.6366 14.9603 12.6985C15.3286 12.8352 15.6725 13.0161 15.9628 13.288C16.0652 13.3842 16.0935 13.4957 16.0346 13.624C15.9735 13.7569 15.8719 13.8317 15.6992 13.8272Z" fill="#F9E9B3"/>
<path d="M14.955 8.68309C14.7257 8.66094 14.6088 8.57464 14.5485 8.41886C14.4935 8.27834 14.5676 8.17677 14.6692 8.09735C14.9557 7.87283 15.269 7.69032 15.6037 7.54904C15.7336 7.49405 15.8727 7.51085 15.9659 7.63457C16.0484 7.74377 16.1202 7.87436 16.0224 8.00113C15.7366 8.37227 15.2789 8.46468 14.955 8.68309Z" fill="#F9E9B3"/>
<path d="M6.00503 13.8539C5.82776 13.831 5.7162 13.7432 5.65889 13.6042C5.60311 13.469 5.63979 13.3453 5.76663 13.2552C6.06005 13.0459 6.3611 12.8489 6.69578 12.7099C6.8402 12.6496 6.97773 12.6549 7.07707 12.7932C7.15806 12.9054 7.21384 13.0352 7.11527 13.1597C6.82644 13.524 6.37562 13.6233 6.00503 13.8539Z" fill="#F9E9B3"/>
<path d="M12.869 14.7619C12.8567 14.5511 12.9416 14.4572 13.0692 14.393C13.2021 14.3258 13.3129 14.377 13.3985 14.477C13.6606 14.7825 13.8631 15.1223 13.9807 15.5095C14.0212 15.6424 13.9876 15.7547 13.8722 15.8341C13.7599 15.9105 13.6384 15.9211 13.5292 15.8326C13.1693 15.5393 12.9675 15.1514 12.8697 14.7627L12.869 14.7619Z" fill="#F9E9B3"/>
<path d="M5.72384 11.0085C5.56261 11.0085 5.40062 11.013 5.2394 11.0077C5.02392 11.0001 4.90549 10.8878 4.90472 10.6679C4.90319 10.4571 5.0201 10.3525 5.22259 10.3486C5.54504 10.3425 5.86826 10.341 6.19071 10.3464C6.40389 10.3502 6.53226 10.464 6.52997 10.6831C6.52768 10.9061 6.38785 11.0031 6.17925 11.0108C6.02719 11.0161 5.87513 11.0115 5.72308 11.0115C5.72308 11.0108 5.72308 11.0092 5.72308 11.0085H5.72384Z" fill="#F9E9B3"/>
<path d="M12.8575 6.6502C12.8514 6.55779 12.8743 6.47608 12.9186 6.40124C13.0776 6.13243 13.2319 5.86056 13.4 5.5971C13.5001 5.44054 13.6468 5.39625 13.818 5.49018C13.9731 5.57495 14.0197 5.69332 13.9647 5.86973C13.8455 6.24774 13.6568 6.57994 13.3847 6.86708C13.2839 6.97399 13.1716 6.98239 13.0485 6.93123C12.9255 6.8793 12.8476 6.78995 12.8575 6.6502Z" fill="#F9E9B3"/>
<path d="M8.85208 6.56848C8.85208 6.77009 8.78254 6.89152 8.63125 6.94268C8.48531 6.99156 8.34395 6.96788 8.25684 6.82202C8.08721 6.53641 7.91682 6.2508 7.75712 5.95908C7.65549 5.77274 7.69523 5.60855 7.88396 5.49553C8.06734 5.38556 8.22093 5.44436 8.32408 5.61008C8.52428 5.93006 8.76191 6.23247 8.85208 6.56848Z" fill="#F9E9B3"/>
<path d="M16.0048 10.3425C16.1668 10.3425 16.3296 10.3357 16.4908 10.3441C16.678 10.354 16.7911 10.4586 16.8041 10.6495C16.8179 10.8557 16.7101 10.9901 16.5114 11.0001C16.1691 11.0176 15.8253 11.0176 15.483 11.0016C15.2858 10.9924 15.1689 10.8588 15.1781 10.6564C15.1865 10.4693 15.3011 10.3578 15.4898 10.3471C15.661 10.3372 15.8329 10.3448 16.0041 10.3448V10.3425H16.0048Z" fill="#F9E9B3"/>
<path d="M10.5194 15.8387C10.5194 15.6768 10.5132 15.5149 10.5209 15.353C10.53 15.1537 10.6294 15.0345 10.8395 15.0238C11.0382 15.0139 11.1627 15.1239 11.1727 15.3026C11.1925 15.663 11.1918 16.0258 11.1734 16.3862C11.1643 16.5718 11.0267 16.6734 10.8365 16.6604C10.6523 16.6474 10.5331 16.5443 10.5232 16.3526C10.514 16.1816 10.5216 16.0097 10.5216 15.8387C10.5209 15.8387 10.5201 15.8387 10.5194 15.8387Z" fill="#F9E9B3"/>
<path d="M11.1834 5.52913C11.1834 5.69026 11.1948 5.85293 11.1803 6.0133C11.1627 6.2065 11.0603 6.33175 10.8479 6.32793C10.6386 6.32411 10.5316 6.20727 10.527 6.00642C10.5194 5.68339 10.5171 5.36036 10.5247 5.03733C10.5293 4.84183 10.6233 4.71735 10.8418 4.71582C11.068 4.71429 11.175 4.83266 11.1856 5.04496C11.1941 5.2061 11.1872 5.368 11.1872 5.52913C11.1856 5.52913 11.1841 5.52913 11.1826 5.52913H11.1834Z" fill="#F9E9B3"/>
<path d="M19.9667 13.8401C20.2517 13.7897 20.5016 13.7447 20.7522 13.7012C25.5676 12.8657 30.0697 16.0372 30.8781 20.8354C31.6957 25.6908 28.3092 30.3293 23.4472 30.9219C20.0126 31.3404 17.2595 30.0689 15.214 27.2975C13.6399 25.1646 13.3137 22.7736 13.8677 20.226C13.8913 20.1175 13.9693 19.9976 13.8646 19.9044C13.7584 19.809 13.6506 19.9128 13.5467 19.9442C11.4286 20.5887 9.32964 20.4963 7.30324 19.6364C4.03746 18.2496 2.0103 15.8127 1.37456 12.2975C1.04294 10.4624 1.2439 8.65788 1.99502 6.94574C3.40479 3.72992 5.85068 1.74591 9.30901 1.15025C12.2615 0.641643 14.9267 1.43128 17.1747 3.413C19.4357 5.40618 20.5108 7.95989 20.4703 10.9726C20.4596 11.7569 20.3213 12.5274 20.1088 13.2834C20.0607 13.4545 20.0202 13.6286 19.9667 13.8401ZM30.3005 22.2833C30.2951 21.8442 30.2707 21.4051 30.2004 20.9721C29.7969 18.4771 28.4643 16.6031 26.3019 15.3408C24.3106 14.1785 22.1857 13.9104 19.9637 14.6115C19.7482 14.6794 19.5602 14.7726 19.451 14.9879C18.4706 16.9231 17.0142 18.3809 15.0703 19.3493C14.8793 19.4447 14.7647 19.5936 14.6998 19.7968C14.3322 20.9492 14.2039 22.1221 14.3605 23.3249C14.9236 27.6473 18.8504 30.7371 23.192 30.2705C27.1921 29.8413 30.3241 26.3216 30.3005 22.284V22.2833ZM10.8907 1.70544C6.10589 1.64205 2.00571 5.63223 1.93083 10.4265C1.85136 15.5179 5.72613 19.5898 10.7876 19.6379C15.6832 19.6845 19.7199 15.7677 19.7826 10.7564C19.8445 5.80787 15.8757 1.77187 10.8907 1.70544Z" stroke="#F9E9B3" stroke-width="0.5" mask="url(#path-1-outside-1_2364_1378)"/>
<path d="M11.9696 30.4912C9.08055 30.424 6.60179 29.5305 4.63729 27.422C3.78913 26.5125 3.15645 25.464 2.67278 24.3223C2.53829 24.0046 2.30015 23.859 1.95834 23.8855C1.70619 23.9053 1.46014 23.9007 1.25231 23.7289C0.932149 23.4654 0.912282 23.0546 1.21792 22.659C1.58546 22.184 1.96674 21.7197 2.34192 21.2508C2.81261 20.6628 3.28177 20.0732 3.75322 19.486C4.22008 18.9048 4.56087 18.8674 5.11791 19.3546C6.13646 20.2458 7.14966 21.1446 8.16286 22.042C8.41578 22.2657 8.55866 22.5338 8.4471 22.8805C8.33554 23.2287 8.06047 23.3547 7.72426 23.3883C7.55387 23.4051 7.38271 23.4349 7.21155 23.4349C6.96856 23.4349 6.9082 23.5426 6.97621 23.7595C7.24517 24.6155 7.63639 25.4021 8.26295 26.0581C9.50768 27.3602 11.0428 28.2078 12.6879 28.8829C12.8468 28.9478 13.0103 29.0036 13.1616 29.083C13.4856 29.2541 13.6094 29.5175 13.546 29.8658C13.4879 30.1842 13.2686 30.3843 12.9087 30.4209C12.5771 30.4545 12.2432 30.4706 11.9689 30.4904L11.9696 30.4912ZM12.681 29.6825C12.4288 29.5702 12.1767 29.4595 11.9253 29.3449C10.336 28.6179 8.84673 27.7489 7.67077 26.4186C6.88069 25.5243 6.35728 24.5078 6.18765 23.3196C6.15021 23.0553 6.2633 22.8919 6.52691 22.8102C6.78824 22.7293 7.0572 22.7621 7.32234 22.7499C7.41633 22.7453 7.52865 22.769 7.57832 22.6666C7.64021 22.5383 7.52101 22.4803 7.44689 22.4131C6.5888 21.6288 5.72766 20.8476 4.8711 20.0618C4.52496 19.7441 4.45008 19.751 4.15284 20.1221C3.47356 20.9698 2.78739 21.8113 2.10581 22.656C2.00419 22.7812 1.77648 22.8721 1.88804 23.0722C1.9889 23.2531 2.1998 23.1401 2.36331 23.15C2.37248 23.15 2.38165 23.1462 2.39159 23.1447C2.80726 23.079 3.02579 23.2096 3.14423 23.6075C3.50259 24.808 4.13756 25.8595 4.95974 26.7859C7.01441 29.0998 9.66432 29.894 12.681 29.6825Z" stroke="#F9E9B3" stroke-width="0.5" mask="url(#path-1-outside-1_2364_1378)"/>
<path d="M19.4441 1.47404C21.8571 1.55728 24.0065 2.21709 25.845 3.73985C27.3289 4.9686 28.2809 6.55092 28.896 8.35471C28.9327 8.46315 28.9701 8.57083 29.0076 8.67927C29.0695 8.8572 29.194 8.93128 29.382 8.91982C29.515 8.91142 29.6502 8.9076 29.7816 8.92135C30.0987 8.95419 30.341 9.09623 30.4579 9.41239C30.5725 9.7232 30.4579 9.9714 30.25 10.1929C29.8321 10.6381 29.4149 11.0841 28.9931 11.5247C28.4391 12.1036 27.8859 12.6832 27.3235 13.2544C26.904 13.6813 26.564 13.6836 26.1491 13.2521C25.171 12.2341 24.2029 11.2063 23.2271 10.1852C23.0086 9.95689 22.9269 9.70258 23.0323 9.4017C23.1393 9.09547 23.3792 8.95495 23.6848 8.92288C23.8545 8.90531 24.0279 8.91219 24.1991 8.9183C24.5338 8.93051 24.6171 8.85262 24.5552 8.51508C24.3932 7.62311 23.9935 6.84035 23.422 6.14159C22.3836 4.87161 21.0854 3.93535 19.632 3.19765C19.4028 3.08157 19.1751 2.95938 18.9505 2.83414C18.5929 2.63406 18.463 2.35761 18.5554 2.00785C18.6502 1.64816 18.8817 1.48244 19.3004 1.47252C19.3669 1.47099 19.4341 1.47252 19.4425 1.47252L19.4441 1.47404ZM19.4853 2.20793C19.5174 2.32477 19.5931 2.33241 19.6473 2.36295C20.2296 2.68828 20.8111 3.01589 21.3673 3.38551C22.6678 4.25075 23.8071 5.27712 24.6002 6.64256C25.0579 7.43067 25.3154 8.27834 25.2956 9.20085C25.2902 9.45134 25.1978 9.60636 24.9364 9.61858C24.6415 9.63233 24.3458 9.63233 24.0509 9.64149C23.9783 9.64378 23.8766 9.6056 23.84 9.6812C23.7934 9.77742 23.9026 9.8263 23.9569 9.88434C24.7729 10.7648 25.5928 11.6423 26.4089 12.5236C26.7374 12.8787 26.755 12.8703 27.0813 12.5167C27.8248 11.7118 28.5828 10.9206 29.327 10.1157C29.4401 9.99354 29.7182 9.93779 29.6204 9.71633C29.5279 9.50556 29.2941 9.6476 29.1253 9.64531C28.6347 9.63767 28.5614 9.59109 28.4146 9.12449C28.3146 8.8068 28.2251 8.48453 28.1113 8.17219C27.0614 5.29621 25.0877 3.39773 22.1238 2.57144C21.271 2.33394 20.4007 2.17127 19.4853 2.20793Z" stroke="#F9E9B3" stroke-width="0.5" mask="url(#path-1-outside-1_2364_1378)"/>
<path d="M20.5413 23.7847C20.5436 23.5548 20.6162 23.3982 20.8638 23.3837C21.1121 23.3692 21.1923 23.522 21.2283 23.7327C21.3352 24.3612 21.5996 24.6697 22.0993 24.7576C22.7144 24.866 23.2684 24.4842 23.3616 23.887C23.4602 23.2562 23.0445 22.7079 22.3989 22.643C21.8739 22.5903 21.3918 22.4666 21.0128 22.0603C20.2173 21.2088 20.468 19.7739 21.5163 19.2691C21.7532 19.1553 21.9847 19.0705 22.0046 18.746C22.0138 18.5894 22.1712 18.555 22.3148 18.5596C22.4745 18.565 22.612 18.6291 22.6197 18.7987C22.6304 19.043 22.7717 19.1362 22.975 19.2194C23.6382 19.4905 23.9729 20.0175 24.0715 20.7078C24.1097 20.9751 24.0012 21.1424 23.7735 21.1775C23.5083 21.2187 23.4205 21.0484 23.3823 20.8308C23.3387 20.5849 23.2822 20.3458 23.1148 20.1481C22.8122 19.7914 22.3225 19.6708 21.8938 19.8495C21.4957 20.0152 21.2069 20.4719 21.2321 20.8987C21.2603 21.3814 21.5805 21.7808 22.0397 21.8938C22.178 21.9274 22.3217 21.9419 22.4638 21.9557C23.2944 22.0351 23.9133 22.6223 24.0562 23.47C24.1807 24.2077 23.7567 24.989 23.0384 25.3112C22.8107 25.4136 22.609 25.5006 22.6052 25.8038C22.6029 25.9672 22.4417 26.0024 22.3079 26.013C22.1612 26.0245 22.0237 25.9604 22.0076 25.8076C21.9786 25.5212 21.7838 25.4136 21.5606 25.3089C20.9127 25.0042 20.591 24.4773 20.5413 23.7862V23.7847Z" stroke="#F9E9B3" stroke-width="0.5" mask="url(#path-1-outside-1_2364_1378)"/>
<path d="M12.3364 11.0085C11.9566 10.9741 11.6357 11.0665 11.3469 11.3437C11.0443 11.6339 10.4918 11.5537 10.1893 11.22C9.8798 10.8786 9.84618 10.3479 10.1702 10.0569C10.4582 9.79881 10.5469 9.50861 10.5201 9.14434C10.5018 8.89844 10.5155 8.64948 10.5178 8.40206C10.5201 8.18517 10.6049 8.01946 10.8426 8.01411C11.0756 8.00877 11.1879 8.15844 11.1879 8.38067C11.1879 8.65483 11.2109 8.92822 11.1558 9.20467C11.0596 9.69037 11.6059 10.3311 12.1003 10.3364C12.3096 10.3387 12.5198 10.3326 12.7291 10.3433C12.9286 10.3532 13.0447 10.4563 13.0447 10.6702C13.0447 10.8794 12.9347 10.9894 12.7353 11.0062C12.6031 11.0169 12.4686 11.0085 12.3356 11.0085H12.3364Z" stroke="#F9E9B3" stroke-width="0.5" mask="url(#path-1-outside-1_2364_1378)"/>
<path d="M7.71204 15.5515C7.82894 15.1407 8.04671 14.755 8.36229 14.4289C8.46239 14.3258 8.59534 14.3686 8.7069 14.435C8.81235 14.4977 8.88035 14.5947 8.84902 14.7214C8.7451 15.1468 8.51817 15.5072 8.22704 15.8272C8.13229 15.9311 8.00163 15.9074 7.88167 15.8524C7.76629 15.7997 7.70974 15.7081 7.71204 15.5515Z" stroke="#F9E9B3" stroke-width="0.5" mask="url(#path-1-outside-1_2364_1378)"/>
<path d="M6.78594 8.67621C6.4016 8.52272 5.99433 8.33867 5.68181 8.008C5.59394 7.91483 5.62756 7.77279 5.71238 7.66511C5.80407 7.54904 5.9332 7.48794 6.06616 7.54216C6.42758 7.68955 6.77983 7.8568 7.06637 8.13477C7.16647 8.23176 7.20773 8.33333 7.13896 8.46544C7.07248 8.59374 6.97238 8.66934 6.78594 8.67774V8.67621Z" stroke="#F9E9B3" stroke-width="0.5" mask="url(#path-1-outside-1_2364_1378)"/>
<path d="M15.6992 13.8272C15.5724 13.8165 15.4493 13.7393 15.3271 13.6676C15.1055 13.5377 14.8847 13.4056 14.6723 13.2621C14.5255 13.1628 14.5003 13.0223 14.5829 12.8611C14.6654 12.7 14.7937 12.6366 14.9603 12.6985C15.3286 12.8352 15.6725 13.0161 15.9628 13.288C16.0652 13.3842 16.0935 13.4957 16.0346 13.624C15.9735 13.7569 15.8719 13.8317 15.6992 13.8272Z" stroke="#F9E9B3" stroke-width="0.5" mask="url(#path-1-outside-1_2364_1378)"/>
<path d="M14.955 8.68309C14.7257 8.66094 14.6088 8.57464 14.5485 8.41886C14.4935 8.27834 14.5676 8.17677 14.6692 8.09735C14.9557 7.87283 15.269 7.69032 15.6037 7.54904C15.7336 7.49405 15.8727 7.51085 15.9659 7.63457C16.0484 7.74377 16.1202 7.87436 16.0224 8.00113C15.7366 8.37227 15.2789 8.46468 14.955 8.68309Z" stroke="#F9E9B3" stroke-width="0.5" mask="url(#path-1-outside-1_2364_1378)"/>
<path d="M6.00503 13.8539C5.82776 13.831 5.7162 13.7432 5.65889 13.6042C5.60311 13.469 5.63979 13.3453 5.76663 13.2552C6.06005 13.0459 6.3611 12.8489 6.69578 12.7099C6.8402 12.6496 6.97773 12.6549 7.07707 12.7932C7.15806 12.9054 7.21384 13.0352 7.11527 13.1597C6.82644 13.524 6.37562 13.6233 6.00503 13.8539Z" stroke="#F9E9B3" stroke-width="0.5" mask="url(#path-1-outside-1_2364_1378)"/>
<path d="M12.869 14.7619C12.8567 14.5511 12.9416 14.4572 13.0692 14.393C13.2021 14.3258 13.3129 14.377 13.3985 14.477C13.6606 14.7825 13.8631 15.1223 13.9807 15.5095C14.0212 15.6424 13.9876 15.7547 13.8722 15.8341C13.7599 15.9105 13.6384 15.9211 13.5292 15.8326C13.1693 15.5393 12.9675 15.1514 12.8697 14.7627L12.869 14.7619Z" stroke="#F9E9B3" stroke-width="0.5" mask="url(#path-1-outside-1_2364_1378)"/>
<path d="M5.72384 11.0085C5.56261 11.0085 5.40062 11.013 5.2394 11.0077C5.02392 11.0001 4.90549 10.8878 4.90472 10.6679C4.90319 10.4571 5.0201 10.3525 5.22259 10.3486C5.54504 10.3425 5.86826 10.341 6.19071 10.3464C6.40389 10.3502 6.53226 10.464 6.52997 10.6831C6.52768 10.9061 6.38785 11.0031 6.17925 11.0108C6.02719 11.0161 5.87513 11.0115 5.72308 11.0115C5.72308 11.0108 5.72308 11.0092 5.72308 11.0085H5.72384Z" stroke="#F9E9B3" stroke-width="0.5" mask="url(#path-1-outside-1_2364_1378)"/>
<path d="M12.8575 6.6502C12.8514 6.55779 12.8743 6.47608 12.9186 6.40124C13.0776 6.13243 13.2319 5.86056 13.4 5.5971C13.5001 5.44054 13.6468 5.39625 13.818 5.49018C13.9731 5.57495 14.0197 5.69332 13.9647 5.86973C13.8455 6.24774 13.6568 6.57994 13.3847 6.86708C13.2839 6.97399 13.1716 6.98239 13.0485 6.93123C12.9255 6.8793 12.8476 6.78995 12.8575 6.6502Z" stroke="#F9E9B3" stroke-width="0.5" mask="url(#path-1-outside-1_2364_1378)"/>
<path d="M8.85208 6.56848C8.85208 6.77009 8.78254 6.89152 8.63125 6.94268C8.48531 6.99156 8.34395 6.96788 8.25684 6.82202C8.08721 6.53641 7.91682 6.2508 7.75712 5.95908C7.65549 5.77274 7.69523 5.60855 7.88396 5.49553C8.06734 5.38556 8.22093 5.44436 8.32408 5.61008C8.52428 5.93006 8.76191 6.23247 8.85208 6.56848Z" stroke="#F9E9B3" stroke-width="0.5" mask="url(#path-1-outside-1_2364_1378)"/>
<path d="M16.0048 10.3425C16.1668 10.3425 16.3296 10.3357 16.4908 10.3441C16.678 10.354 16.7911 10.4586 16.8041 10.6495C16.8179 10.8557 16.7101 10.9901 16.5114 11.0001C16.1691 11.0176 15.8253 11.0176 15.483 11.0016C15.2858 10.9924 15.1689 10.8588 15.1781 10.6564C15.1865 10.4693 15.3011 10.3578 15.4898 10.3471C15.661 10.3372 15.8329 10.3448 16.0041 10.3448V10.3425H16.0048Z" stroke="#F9E9B3" stroke-width="0.5" mask="url(#path-1-outside-1_2364_1378)"/>
<path d="M10.5194 15.8387C10.5194 15.6768 10.5132 15.5149 10.5209 15.353C10.53 15.1537 10.6294 15.0345 10.8395 15.0238C11.0382 15.0139 11.1627 15.1239 11.1727 15.3026C11.1925 15.663 11.1918 16.0258 11.1734 16.3862C11.1643 16.5718 11.0267 16.6734 10.8365 16.6604C10.6523 16.6474 10.5331 16.5443 10.5232 16.3526C10.514 16.1816 10.5216 16.0097 10.5216 15.8387C10.5209 15.8387 10.5201 15.8387 10.5194 15.8387Z" stroke="#F9E9B3" stroke-width="0.5" mask="url(#path-1-outside-1_2364_1378)"/>
<path d="M11.1834 5.52913C11.1834 5.69026 11.1948 5.85293 11.1803 6.0133C11.1627 6.2065 11.0603 6.33175 10.8479 6.32793C10.6386 6.32411 10.5316 6.20727 10.527 6.00642C10.5194 5.68339 10.5171 5.36036 10.5247 5.03733C10.5293 4.84183 10.6233 4.71735 10.8418 4.71582C11.068 4.71429 11.175 4.83266 11.1856 5.04496C11.1941 5.2061 11.1872 5.368 11.1872 5.52913C11.1856 5.52913 11.1841 5.52913 11.1826 5.52913H11.1834Z" stroke="#F9E9B3" stroke-width="0.5" mask="url(#path-1-outside-1_2364_1378)"/>
</svg>
